<?xml version="1.0" encoding="utf-8"?>
<!-- Generator: Adobe Illustrator 27.5.0, SVG Export Plug-In . SVG Version: 6.00 Build 0)  -->
<svg version="1.1" id="Layer_1" xmlns="http://www.w3.org/2000/svg" xmlns:xlink="http://www.w3.org/1999/xlink" x="0px" y="0px"
	 viewBox="0 0 400 96" style="enable-background:new 0 0 400 96;" xml:space="preserve">
<style type="text/css">
	.st0{fill:#2E5B7A;}
	.st1{fill:#93BE55;}
</style>
<path class="st0" d="M348.4,66c0-5.5,0-11,0-16.6c0-4,1.2-7.9,3.5-11.2c3.2-4.9,8.4-8.2,14.3-8.9c11.3-1.6,21.7,6.3,23.3,17.5
	c0,0.2,0.1,0.4,0.1,0.6c0.8,6.6-1.7,13.1-6.7,17.4c-6.5,5.8-13.8,6.7-21.9,3.7c-1.5-0.6-1.5-0.5-1.5,1.1v14c0,1.1-0.1,1.2-1.2,1.2
	h-8.6c-1,0-1.1-0.1-1.1-1.1V66z M368.8,40.1c-4.9-0.2-9.5,4.5-9.4,9.9c0.2,5.3,4.6,9.4,9.9,9.3c5.3-0.2,9.4-4.6,9.3-9.9l0,0
	C378.4,44.1,374,40,368.8,40.1z"/>
<path class="st0" d="M332.5,72.7c-3.4,0-6.8,0.1-10.2,0c-5.5-0.2-10.6-2.7-14.1-6.9c-5.1-5.4-6.8-13.2-4.2-20.2
	c2.1-7.1,8.1-12.4,15.4-13.7c11.2-2.4,22.2,4.8,24.5,15.9c0.1,0.4,0.1,0.7,0.2,1.1c0.5,1.8-0.2,3.8-1.6,5c-2.4,2.1-4.5,4.5-6.8,6.8
	c-0.2,0.2-0.5,0.4-0.4,0.7c0.2,0.3,0.5,0.2,0.8,0.2h7c0.9,0,1.1,0.2,1.1,1.1c0,3,0,5.9,0,8.9c0,0.9-0.2,1.1-1.1,1.1H332.5
	L332.5,72.7z M314,52c0,3.4,1.8,6.6,4.7,8.3c1,0.6,1.1,0.6,1.9-0.2l10.5-10.5c1.2-1.2,1.2-1.4,0.3-2.8c0-0.1-0.1-0.1-0.1-0.2
	c-2.4-3.3-6.6-4.8-10.5-3.7C316.9,44.2,314.1,47.8,314,52z"/>
<path class="st0" d="M164,30.8c10.8-0.6,20.7,9.2,21.1,20.1c0.2,11.6-9,21.3-20.7,21.5c-11.6,0.2-21.3-9-21.5-20.7
	C142.9,40.1,153.1,30.3,164,30.8z M173.8,51.7c0.3-5.2-4.6-9.6-9.5-9.7c-5.4-0.1-9.9,4.1-10,9.5c-0.1,5.4,4.1,9.9,9.5,10
	C169.2,61.6,173.7,57.3,173.8,51.7C173.8,51.8,173.8,51.7,173.8,51.7z"/>
<path class="st1" d="M38.4,72.5c-2.8,0-6.1,0.1-9.5-0.1c-4.6-0.2-8.9-2.1-12.2-5.2c-2.4-2.2-4.2-4.9-5.3-7.9
	c-1.3-3.6-1.5-7.5-0.6-11.2c1.4-6.7,6.3-12.2,12.8-14.3c7.9-2.9,16.7-0.5,22,6c2.2,2.5,3.6,5.5,4.3,8.7c0.3,1.3,0.4,2.7,0.4,4.1
	v18.9c0,1-0.2,1.1-1.2,1.1H38.4z M40.3,56.7L40.3,56.7c0-1.5,0-3,0-4.5c-0.3-5.6-5.1-9.9-10.7-9.6c-0.3,0-0.6,0-0.8,0.1
	c-4.8,0.9-8.3,5.1-8.4,9.9c0.1,5.3,4.3,9.6,9.5,9.8c3.1,0,6.2,0,9.3,0c0.8,0,1-0.2,1-1L40.3,56.7z"/>
<path class="st0" d="M229.7,60.9c0,3.6,0,7.1,0,10.6c0,1.2-0.1,1.3-1.3,1.3h-8.5c-1.2,0-1.3,0-1.3-1.3c0-6.4,0-12.9,0-19.4
	c0-4.1-2.6-7.7-6.4-9c-3.8-1.4-8.1-0.2-10.6,3c-1.5,2-2.3,4.4-2.2,6.9c0,6.1,0,12.3,0,18.4c0,0.3,0,0.5,0,0.8c0,0.3-0.2,0.6-0.6,0.6
	c0,0-0.1,0-0.1,0h-9.6c-0.3,0.1-0.7-0.2-0.7-0.5c0-0.1,0-0.1,0-0.2c0-0.2,0-0.4,0-0.6c0-6.4,0.1-12.8,0-19.2
	c-0.1-4.5,1.3-8.9,4.1-12.4c3.1-4.3,7.8-7.2,13.1-8.1c9.9-1.7,19.6,4,23,13.4c0.8,2.1,1.2,4.4,1.2,6.6
	C229.7,54.8,229.7,57.8,229.7,60.9z"/>
<path class="st0" d="M89.7,47.2c-1.5,0-3.1,0-4.7,0c-0.6,0.1-1.3-0.2-1.6-0.8c-0.5-0.8-1.2-1.4-1.9-2c-3.3-2.6-8.1-2.7-11.5-0.2
	c-4,2.9-5.2,8.4-2.7,12.7c2.5,4.2,7.8,5.9,12.3,3.9c1.5-0.8,2.8-1.8,3.9-3.2c0.4-0.5,0.9-0.7,1.5-0.7h9.6c1,0,1.2,0.2,0.9,1.2
	c-3.2,10.6-14.3,16.8-25.1,14c-5.5-1.4-10.2-5-13-10c-4.5-8.1-3.1-18.3,3.5-24.8c3.6-3.7,8.6-5.9,13.7-6c5.6-0.2,11.1,1.8,15.1,5.6
	c2.7,2.5,4.6,5.7,5.6,9.3c0.2,0.7,0,0.9-0.7,0.9L89.7,47.2z"/>
<path class="st0" d="M274.9,33.3c0-6.9,0-13.8,0-20.7c0-1.1,0.1-1.2,1.2-1.2h8.6c1,0,1.1,0.2,1.1,1.2v17.9c0,1.4,0,1.4,1.5,1.4h10.2
	c1.2,0,1.3,0.1,1.3,1.4v8.4c0,1.1-0.1,1.2-1.2,1.2c-3.5,0-7,0-10.5,0c-1.1,0-1.2,0.1-1.2,1.2v7.4c0,1.1,0.1,2.3,0.4,3.4
	c1,4,4.6,6.8,8.7,7c1,0,2,0,2.9,0c0.7,0,0.9,0.2,0.9,0.9v9c0,0.5-0.2,1-0.8,1c-1.9,0.1-3.8,0-5.7-0.2c-3.7-0.5-7.3-2.1-10.1-4.6
	c-4.1-3.3-6.7-8.1-7.3-13.4c-0.1-1.4,0-2.7,0-4.1L274.9,33.3L274.9,33.3z"/>
<path class="st0" d="M110.6,21.6v8.9c0,1.1,0.1,1.2,1.2,1.2h10.5c1.1,0,1.2,0.1,1.2,1.2v8.7c0,1-0.1,1.1-1.1,1.1h-10.7
	c-1,0-1.1,0.2-1.1,1.1c0,3,0,5.9,0.1,8.9c0.3,4.9,4.2,8.8,9.1,9c0.9,0,1.9,0,2.8,0c0.6,0,0.9,0.3,0.9,0.9v9.1c0,0.5-0.1,0.9-0.7,0.9
	c-2.6,0.2-5.1,0-7.6-0.5c-5.5-1.4-10.1-5-12.9-9.9c-1.8-3-2.6-6.4-2.6-9.8c0-13.3,0-26.6,0-39.8c0-1.2,0.1-1.3,1.3-1.3h8.4
	c1,0,1.2,0.2,1.2,1.2L110.6,21.6z"/>
<path class="st0" d="M233.8,67.2c0-1.5,0-3,0-4.5c0-0.8,0.2-1,1-1c2,0.2,4-0.1,5.9-0.8c3.4-1.2,5.8-4.4,6-8c0-2.4,0.4-4.8,1-7.1
	c2.4-7.8,9.1-13.4,17.1-14.4c1.8-0.2,3.6-0.2,5.3-0.1c0.4-0.1,0.7,0.2,0.8,0.6c0,0.1,0,0.1,0,0.2c0,3.2,0,6.4,0,9.5
	c0,0.6-0.4,0.8-0.9,0.8c-1.3,0-2.6,0.1-3.9,0.3c-3.6,0.5-6.5,3-7.5,6.5c-0.4,1.2-0.6,2.5-0.6,3.8c0,2.9-0.8,5.8-2.2,8.4
	c-2.6,5.3-7.4,9.2-13.1,10.8c-1.6,0.5-3.3,0.7-5.1,0.7h-2.8c-0.8,0-1-0.2-1-0.9C233.8,70.4,233.8,68.8,233.8,67.2L233.8,67.2z"/>
<path class="st0" d="M127.8,52.3V33.1c0-1.1,0.1-1.2,1.2-1.2h8.6c1,0,1.1,0.1,1.1,1.1v38.7c0,1-0.1,1.1-1.1,1.1H129
	c-1,0-1.1-0.1-1.1-1.2V52.3z"/>
<path class="st0" d="M133.2,22.6c-3,0.5-5.6-3-5.5-5.5c0-3.1,2.5-5.6,5.6-5.7c3,0,5.5,2.3,5.5,5.3c0.3,2.9-1.8,5.5-4.7,5.8
	C133.8,22.7,133.5,22.7,133.2,22.6z"/>
</svg>
