<?xml version="1.0" encoding="utf-8"?>
<!-- Generator: Adobe Illustrator 27.5.0, SVG Export Plug-In . SVG Version: 6.00 Build 0)  -->
<svg version="1.1" id="Layer_1" xmlns="http://www.w3.org/2000/svg" xmlns:xlink="http://www.w3.org/1999/xlink" x="0px" y="0px"
	 viewBox="0 0 700 700" style="enable-background:new 0 0 700 700;" xml:space="preserve">
<style type="text/css">
	.st0{fill-rule:evenodd;clip-rule:evenodd;fill:#1E3A57;}
</style>
<path class="st0" d="M255.4,255.4H78.1c-32.6,0-59.1,26.5-59.1,59.1v70.9c0,32.6,26.5,59.1,59.1,59.1h177.3v177.3
	c0,32.6,26.5,59.1,59.1,59.1h70.9c32.6,0,59.1-26.5,59.1-59.1V444.6h177.3c32.6,0,59.1-26.5,59.1-59.1v-70.9
	c0-32.6-26.5-59.1-59.1-59.1H444.6V78.1c0-32.6-26.5-59.1-59.1-59.1h-70.9c-32.6,0-59.1,26.5-59.1,59.1V255.4z M279.1,302.7
	c13.1,0,23.6-10.6,23.6-23.6v-201c0-6.5,5.3-11.8,11.8-11.8h70.9c6.5,0,11.8,5.3,11.8,11.8v201c0,13.1,10.6,23.6,23.6,23.6h201
	c6.5,0,11.8,5.3,11.8,11.8v70.9c0,6.5-5.3,11.8-11.8,11.8h-201c-13.1,0-23.6,10.6-23.6,23.6v201c0,6.5-5.3,11.8-11.8,11.8h-70.9
	c-6.5,0-11.8-5.3-11.8-11.8v-201c0-13.1-10.6-23.6-23.6-23.6h-201c-6.5,0-11.8-5.3-11.8-11.8v-70.9c0-6.5,5.3-11.8,11.8-11.8H279.1z
	"/>
</svg>
