<?xml version="1.0" encoding="utf-8"?>
<!-- Generator: Adobe Illustrator 27.5.0, SVG Export Plug-In . SVG Version: 6.00 Build 0)  -->
<svg version="1.1" id="Layer_1" xmlns="http://www.w3.org/2000/svg" xmlns:xlink="http://www.w3.org/1999/xlink" x="0px" y="0px"
	 viewBox="0 0 700 700" style="enable-background:new 0 0 700 700;" xml:space="preserve">
<style type="text/css">
	.st0{fill:#1E3A57;}
</style>
<path class="st0" d="M562.8,249v352.8c0,24.8-10.1,47.3-26.5,63.7C520,681.9,497.5,692,472.7,692H227.3c-24.8,0-47.3-10.1-63.7-26.5
	c-16.3-16.3-26.5-38.9-26.5-63.7V249h-30.9c-10.2,0-18.5-8.3-18.5-18.5V126.8c0-10.2,8.3-18.5,18.5-18.5H250V25.5
	C250,15.3,258.3,7,268.5,7h163c10.2,0,18.5,8.3,18.5,18.5v82.7h143.7c10.2,0,18.5,8.3,18.5,18.5v103.7c0,10.2-8.3,18.5-18.5,18.5
	L562.8,249L562.8,249z M442.5,317.8c0-10.2,8.3-18.5,18.5-18.5s18.5,8.3,18.5,18.5v254.9c0,10.2-8.3,18.5-18.5,18.5
	c-10.2,0-18.5-8.3-18.5-18.5V317.8z M335.1,341.5c0-10.2,8.3-18.5,18.5-18.5s18.5,8.3,18.5,18.5V549c0,10.2-8.3,18.5-18.5,18.5
	c-10.2,0-18.5-8.3-18.5-18.5V341.5z M227.7,317.8c0-10.2,8.3-18.5,18.5-18.5s18.5,8.3,18.5,18.5v254.9c0,10.2-8.3,18.5-18.5,18.5
	c-10.2,0-18.5-8.3-18.5-18.5L227.7,317.8z M287,108.2h126V44H287V108.2z M174.2,249v352.8c0,14.6,6,27.8,15.6,37.5
	c9.6,9.6,22.9,15.6,37.5,15.6h245.3c14.6,0,27.9-6,37.5-15.6c9.6-9.6,15.6-22.9,15.6-37.5V249L174.2,249z M575.2,145.3H124.8V212
	h450.4V145.3z"/>
</svg>
