<?xml version="1.0" encoding="utf-8"?>
<!-- Generator: Adobe Illustrator 27.5.0, SVG Export Plug-In . SVG Version: 6.00 Build 0)  -->
<svg version="1.1" id="Layer_1" xmlns="http://www.w3.org/2000/svg" xmlns:xlink="http://www.w3.org/1999/xlink" x="0px" y="0px"
	 viewBox="0 0 700 700" style="enable-background:new 0 0 700 700;" xml:space="preserve">
<style type="text/css">
	.st0{fill:#1E3A57;}
</style>
<path class="st0" d="M580.2,637.7c56.1,0,100.7-44.6,100.7-100.7V163c0-56.1-44.6-100.7-100.7-100.7H119.8
	C63.7,62.3,19.1,106.9,19.1,163v374c0,56.1,44.6,100.7,100.7,100.7H580.2z M119.8,119.8h460.3c24.5,0,43.2,20.1,43.2,43.2v247.4
	l-67.6-67.6c-34.5-34.5-90.6-34.5-123.7,0l-46,46c-8.6,8.6-8.6,24.5,0,33.1l155.4,158.2h-80.6L328.4,446.4l-46-46
	c-34.5-34.5-90.6-34.5-125.2,0l-80.6,82V163C76.7,140,96.8,119.8,119.8,119.8z"/>
<path class="st0" d="M378.8,256.5c0,43.7-35.4,79.1-79.1,79.1s-79.1-35.4-79.1-79.1s35.4-79.1,79.1-79.1S378.8,212.8,378.8,256.5"/>
</svg>
