<?xml version="1.0" encoding="utf-8"?>
<!-- Generator: Adobe Illustrator 27.5.0, SVG Export Plug-In . SVG Version: 6.00 Build 0)  -->
<svg version="1.1" id="Layer_1" xmlns="http://www.w3.org/2000/svg" xmlns:xlink="http://www.w3.org/1999/xlink" x="0px" y="0px"
	 viewBox="0 0 700 700" style="enable-background:new 0 0 700 700;" xml:space="preserve">
<style type="text/css">
	.st0{fill:#1E3A57;}
</style>
<path class="st0" d="M150.8,498.9L108.8,541l-42.1-42.1L24.7,541L66.7,583l-42.1,42.1l42.1,42.1l42.1-42.1l42.1,42.1l42.1-42.1
	L150.8,583l42.1-42.1L150.8,498.9z"/>
<path class="st0" d="M563.6,583L521.5,541L479.5,583l84.1,84.1L689.8,541l-42.1-42.1L563.6,583z"/>
<path class="st0" d="M346.7,196.4c49.2,0,89.2-40,89.2-89.2S395.9,18,346.7,18s-89.2,40-89.2,89.2S297.5,196.4,346.7,196.4z
	 M346.7,77.5c16.4,0,29.7,13.3,29.7,29.7S363.1,137,346.7,137S317,123.6,317,107.2S330.3,77.5,346.7,77.5z"/>
<path class="st0" d="M564.8,464.1h39.7V365H470.3L366.5,313v-86.9h-39.7V313L223.1,365H89v99.1h39.7v-59.5h94.4l123.6,61.8
	l123.6-61.8h94.4V464.1z M346.7,422.1l-74.6-37.3l74.6-37.3l74.6,37.3L346.7,422.1z"/>
</svg>
