<svg xmlns="http://www.w3.org/2000/svg" xmlns:xlink="http://www.w3.org/1999/xlink" viewBox="0 0 745.34 103.6"><defs><style>.cls-1{fill:none;}.cls-2{fill:#0d1238;}.cls-3{clip-path:url(#clip-path);}.cls-4{fill:url(#linear-gradient);}.cls-5{fill:url(#linear-gradient-2);}.cls-6{fill:url(#linear-gradient-3);}.cls-7{fill:url(#linear-gradient-4);}</style><clipPath id="clip-path" transform="translate(0.01)"><rect class="cls-1" y="0.5" width="129.1" height="103"/></clipPath><linearGradient id="linear-gradient" x1="186.72" y1="675.23" x2="154.9" y2="715.25" gradientTransform="translate(-145.98 -662.72)" gradientUnits="userSpaceOnUse"><stop offset="0.24" stop-color="#3a67af"/><stop offset="1" stop-color="#699ae8"/></linearGradient><linearGradient id="linear-gradient-2" x1="201.88" y1="706.72" x2="179.19" y2="735.68" gradientTransform="translate(-145.98 -662.72)" gradientUnits="userSpaceOnUse"><stop offset="0" stop-color="#3a67af"/><stop offset="1" stop-color="#699ae8"/></linearGradient><linearGradient id="linear-gradient-3" x1="255.69" y1="730.8" x2="200.85" y2="661.24" gradientTransform="translate(-145.98 -662.72)" gradientUnits="userSpaceOnUse"><stop offset="0" stop-color="#699ae8"/><stop offset="0.98" stop-color="#3a67af"/></linearGradient><linearGradient id="linear-gradient-4" x1="288.58" y1="818.5" x2="182.5" y2="677.94" gradientTransform="translate(-145.98 -662.72)" gradientUnits="userSpaceOnUse"><stop offset="0" stop-color="#699ae8"/><stop offset="1" stop-color="#3a67af"/></linearGradient></defs><g id="Layer_2" data-name="Layer 2"><g id="Layer_1-2" data-name="Layer 1"><g id="Layer_2-2" data-name="Layer 2"><g id="Layer_1-2-2" data-name="Layer 1-2"><path class="cls-2" d="M480.9,37.8a33.21,33.21,0,0,0-20.3-6.9c-18.8,0-34.2,15.6-34.2,36.3s15.9,36.1,35,36.1a29.55,29.55,0,0,0,19.5-6.9l.1,6.9h18.4V27.1ZM463.4,86.1c-10,0-18.3-7.6-18.3-18.9,0-10.8,7.7-19.1,17.9-19.1a22.94,22.94,0,0,1,9.6,2.2,21.8,21.8,0,0,1,7.7,6.1V77.8a20.83,20.83,0,0,1-7.4,6.1A21.59,21.59,0,0,1,463.4,86.1Z" transform="translate(0.01)"/><path class="cls-2" d="M165.7,48.9a36.94,36.94,0,0,1,13.2-13.4,35.92,35.92,0,0,1,18.5-5,39.7,39.7,0,0,1,17.7,4.2,36.83,36.83,0,0,1,14,12,32.87,32.87,0,0,1,5.8,18.6,41.58,41.58,0,0,1-.6,8.7l-53.4.1c.9,3.5,3.3,6,6,8.1s6.2,3,10.4,3c3,0,7.1-.5,7.1-.5l17.3,10c-.8.5.3-.1-4.3,3.1-6.1,4.1-12,5.3-19.5,5.3A37.28,37.28,0,0,1,165.7,85a34.67,34.67,0,0,1-5-18.1A38,38,0,0,1,165.7,48.9Zm48.8,10.5c-1.4-3.3-3.6-5.3-6.3-7.3A16.28,16.28,0,0,0,198,48.7a17.43,17.43,0,0,0-10.1,2.9,18.49,18.49,0,0,0-6.5,7.8Z" transform="translate(0.01)"/><path class="cls-2" d="M246.5,103.2V10.8L264.9,0V103.2Z" transform="translate(0.01)"/><path class="cls-2" d="M280.2,48.9a36.94,36.94,0,0,1,13.2-13.4,35.92,35.92,0,0,1,18.5-5,39.7,39.7,0,0,1,17.7,4.2,36.83,36.83,0,0,1,14,12,32.87,32.87,0,0,1,5.8,18.6,41.58,41.58,0,0,1-.6,8.7l-53.4.1c.9,3.5,3.3,6,6,8.1s6.2,3,10.4,3c3,0,7.1-.5,7.1-.5l17.3,10c-.8.5.3-.1-4.3,3.1-6.1,4.1-12,5.3-19.5,5.3A37.28,37.28,0,0,1,280.2,85a34.67,34.67,0,0,1-5-18.1A38,38,0,0,1,280.2,48.9ZM329,59.4c-1.4-3.3-3.6-5.3-6.3-7.3a16.28,16.28,0,0,0-10.2-3.4,17.43,17.43,0,0,0-10.1,2.9,18.49,18.49,0,0,0-6.5,7.8Z" transform="translate(0.01)"/><path class="cls-2" d="M351.5,30.6h19.8l16.6,47.8,16.7-47.8h19.8l-27,72.7H378.5Z" transform="translate(0.01)"/><path class="cls-2" d="M530.6,50.3V69.6c0,5.6,1,9.7,3,12.1s5.2,3.7,9.7,3.7v17.9c-9.5,0-17-2.8-22.6-8.3s-8.4-14-8.4-25.4V32.4l.1-21.5L530.8.1l-.2,32.3h12.7V50.3Z" transform="translate(0.01)"/><path class="cls-2" d="M619.6,31.7v37c0,11.5-2.8,20.1-8.5,25.9s-13.2,8.7-22.5,8.7-16.9-2.9-22.5-8.7-8.5-14.4-8.5-25.9v-37h18.3v37q0,8.55,3,12.6c2,2.7,5.2,4,9.6,4s7.6-1.3,9.6-4,3-6.9,3-12.6v-37Z" transform="translate(0.01)"/><path class="cls-2" d="M632,65.8c0-11.3,2.8-19.8,8.3-25.5s12.8-8.5,21.8-8.5h.9V49.9h-.7c-4,0-7,1.3-9,3.8s-3,6.6-3,12.1v37.5H632Z" transform="translate(0.01)"/><path class="cls-2" d="M676.1,49a36.94,36.94,0,0,1,13.2-13.4,35.92,35.92,0,0,1,18.5-5,39.7,39.7,0,0,1,17.7,4.2,36.83,36.83,0,0,1,14,12,32.87,32.87,0,0,1,5.8,18.6,41.58,41.58,0,0,1-.6,8.7l-53.4.1c.9,3.5,3.3,6,6,8.1s6.2,3,10.4,3c3,0,7.1-.5,7.1-.5l17.3,10c-.8.5.3-.1-4.3,3.1-6.1,4.1-12,5.3-19.5,5.3a37.28,37.28,0,0,1-32.2-18.1,34.67,34.67,0,0,1-5-18.1A38,38,0,0,1,676.1,49Zm48.8,10.5c-1.4-3.3-3.6-5.3-6.3-7.3a16.28,16.28,0,0,0-10.2-3.4,17.43,17.43,0,0,0-10.1,2.9,18.49,18.49,0,0,0-6.5,7.8Z" transform="translate(0.01)"/><g class="cls-3"><path class="cls-4" d="M39.33,39.71,2.81,62.65A1.83,1.83,0,0,1,.28,62.1,1.81,1.81,0,0,1,0,60.9V39.12a4.56,4.56,0,0,1,2.11-3L26.22,21.57" transform="translate(0.01)"/><path class="cls-5" d="M56.65,42.87,2,76.58a4.37,4.37,0,0,0-2,2.81v22.24a1.52,1.52,0,0,0,1.43,1.61,1.54,1.54,0,0,0,.91-.24c16-10.06,61.8-39.09,68.71-41.67l1.75-3L59.58,40.18Z" transform="translate(0.01)"/><path class="cls-6" d="M106,48.61v-21a3.85,3.85,0,0,0-1.87-3.27l-2.69-1.64L85.56,13S64.73-.55,61.68.62c-3.63,1.4-13,7.49-13,7.49l-10.3,6.44v.11c1.41-.35,4.8-2.46,16.86,4.57l49.39,30.19a1,1,0,0,0,1.3-.55A.77.77,0,0,0,106,48.61Z" transform="translate(0.01)"/><path class="cls-7" d="M129.1,80.91a6,6,0,0,0-2.57-5L47.17,26.48A56.65,56.65,0,0,0,37.1,21.69c-7-2.23-11.23.11-11.23.11L6,33.86s9.6-1.29,20.83,5.85C31,42.4,100.66,85.83,128.05,103.5a.6.6,0,0,0,.83-.16.57.57,0,0,0,.1-.42v-22Z" transform="translate(0.01)"/></g></g></g></g></g></svg>