<?xml version="1.0" encoding="utf-8"?>
<!-- Generator: Adobe Illustrator 27.5.0, SVG Export Plug-In . SVG Version: 6.00 Build 0)  -->
<svg version="1.1" id="Layer_1" xmlns="http://www.w3.org/2000/svg" xmlns:xlink="http://www.w3.org/1999/xlink" x="0px" y="0px"
	 viewBox="0 0 700 700" style="enable-background:new 0 0 700 700;" xml:space="preserve">
<style type="text/css">
	.st0{fill:#1E3A57;}
</style>
<path class="st0" d="M350,20.3C167.9,20.3,20.3,167.9,20.3,350S167.9,679.7,350,679.7S679.7,532.1,679.7,350S532.1,20.3,350,20.3
	L350,20.3z M436,490.7c-15.9,15.5-37.6,24.6-65,27.5v44.2h-35.5v-44c-27.8-2.8-50.9-12.7-69-29.6c-18.2-16.9-27-41.7-26.3-74.5
	l0.4-1.1h63.7c0,19.9,4.6,34.2,13.7,42.8c9.2,8.6,20.9,13,35,13c13.5,0,23.9-3.6,31.2-10.8c7.2-7.2,10.8-16.9,10.8-29.1
	c0-12.1-3.5-21.9-10.4-29.5c-6.9-7.6-18.8-14.7-35.6-21.2c-33.1-12.1-57.6-25.5-73.6-40.3c-16-14.8-24-35.7-24-62.6
	c0-25,8-45.5,24-61.5c16-16,37.6-25.4,64.7-28.2v-48.1h35.5v48.5c26.2,3.9,46.8,14.8,61.8,32.8c14.9,18,22.3,41.4,22,70.1l-0.6,1.2
	h-63.7c0-17.6-3.6-31.1-10.8-40.7c-7.3-9.5-17.1-14.3-29.6-14.3c-12.8,0-22.3,3.7-28.6,11.1c-6.2,7.4-9.4,17.2-9.4,29.3
	c0,11.6,3.3,21,10,28.2c6.6,7.2,18.8,14.3,36.5,21.3c32.9,13,57.3,26.8,73.1,41.5c15.9,14.7,23.8,35.4,23.8,61.9
	C459.9,454.5,451.9,475.2,436,490.7L436,490.7z"/>
</svg>
