<?xml version="1.0" encoding="UTF-8"?>
<svg width="700pt" height="700pt" version="1.1" viewBox="0 0 700 700" xmlns="http://www.w3.org/2000/svg">
 <path d="m350 79.641c-110.65 0-200.36 89.707-200.36 200.36s89.707 200.36 200.36 200.36 200.36-89.707 200.36-200.36-89.707-200.36-200.36-200.36zm52.238 285.86c-9.6758 9.4141-22.855 14.961-39.48 16.695v26.879h-21.578v-26.738c-16.922-1.7148-30.906-7.6992-41.93-17.988-11.043-10.254-16.379-25.34-16.012-45.254l0.26172-0.66406h38.711c0 12.109 2.7656 20.789 8.3281 26.039 5.5664 5.25 12.672 7.875 21.262 7.875 8.2266 0 14.523-2.1875 18.934-6.5781 4.375-4.375 6.5625-10.289 6.5625-17.711 0-7.332-2.1016-13.316-6.3008-17.922-4.1992-4.6016-11.41-8.9062-21.629-12.879-20.09-7.332-35-15.504-44.746-24.5-9.7109-8.9961-14.578-21.684-14.578-38.062 0-15.207 4.8633-27.668 14.578-37.398 9.7461-9.7109 22.836-15.434 39.305-17.148v-29.211h21.578v29.453c15.906 2.3438 28.438 8.9961 37.539 19.949 9.082 10.953 13.527 25.164 13.352 42.613l-0.38672 0.69922h-38.691c0-10.676-2.1875-18.918-6.5625-24.711-4.4102-5.793-10.395-8.6992-17.988-8.6992-7.7891 0-13.578 2.2383-17.379 6.7383-3.7969 4.4805-5.6875 10.43-5.6875 17.832 0 7.0508 2.0117 12.773 6.0547 17.168 4.0078 4.375 11.41 8.7148 22.191 12.969 20.004 7.875 34.809 16.273 44.434 25.234 9.6406 8.9609 14.473 21.488 14.473 37.59-0.070312 15.75-4.9023 28.316-14.613 37.73z"/>
</svg>
