<?xml version="1.0" encoding="utf-8"?>
<!-- Generator: Adobe Illustrator 27.5.0, SVG Export Plug-In . SVG Version: 6.00 Build 0)  -->
<svg version="1.1" id="Layer_1" xmlns="http://www.w3.org/2000/svg" xmlns:xlink="http://www.w3.org/1999/xlink" x="0px" y="0px"
	 viewBox="0 0 700 700" style="enable-background:new 0 0 700 700;" xml:space="preserve">
<style type="text/css">
	.st0{fill:#1E3A57;}
</style>
<path class="st0" d="M572.9,678.2H127.1c-19.3,0-34.9-15.6-34.9-34.9V56.7c0-19.3,15.6-34.9,34.9-34.9h445.7
	c19.3,0,34.9,15.6,34.9,34.9v586.7C607.7,662.6,592.1,678.2,572.9,678.2L572.9,678.2z M127.1,46.4c-5.6,0-10.2,4.6-10.2,10.2v586.7
	c0,5.6,4.6,10.2,10.2,10.2h445.7c5.6,0,10.2-4.6,10.2-10.2V56.7c0-5.6-4.6-10.2-10.2-10.2L127.1,46.4z"/>
<path class="st0" d="M539.7,200H160.3c-12.6,0-22.7-10.2-22.8-22.8l0-74.7c0-12.5,10.2-22.7,22.8-22.8h379.3
	c12.5,0,22.7,10.2,22.8,22.8v74.7C562.4,189.8,552.2,200,539.7,200L539.7,200z M162.3,175.3h375.5v-70.9H162.3V175.3z"/>
<path class="st0" d="M229.1,331h-56.9c-10.7,0-19.4-8.7-19.4-19.3v-60.5c0-10.7,8.7-19.3,19.3-19.3H229c10.7,0,19.3,8.7,19.3,19.3
	v60.5C248.4,322.3,239.7,330.9,229.1,331L229.1,331z M177.5,306.3h46.2v-49.9h-46.3L177.5,306.3z"/>
<path class="st0" d="M229.1,475h-56.9c-10.7,0-19.4-8.7-19.4-19.3v-60.5c0-10.7,8.7-19.3,19.3-19.3H229c10.7,0,19.3,8.7,19.3,19.3
	l0,60.5C248.4,466.3,239.7,474.9,229.1,475L229.1,475z M177.4,450.3h46.2v-49.9h-46.2V450.3z"/>
<path class="st0" d="M229.1,618.9h-56.9c-10.7,0-19.4-8.6-19.4-19.3v-60.5c0-10.7,8.7-19.3,19.3-19.3H229c10.7,0,19.3,8.7,19.3,19.3
	v60.5C248.3,610.3,239.7,618.9,229.1,618.9L229.1,618.9z M177.5,594.3h46.2v-49.9h-46.3L177.5,594.3z"/>
<path class="st0" d="M378.4,331h-56.9c-10.7,0-19.3-8.7-19.3-19.3v-60.5c0-10.7,8.7-19.3,19.3-19.3h56.9c10.7,0,19.3,8.7,19.3,19.3
	v60.5C397.7,322.3,389.1,331,378.4,331L378.4,331z M326.9,306.3h46.2v-49.9h-46.2L326.9,306.3z"/>
<path class="st0" d="M378.4,475h-56.9c-10.7,0-19.3-8.7-19.3-19.3v-60.5c0-10.7,8.7-19.3,19.3-19.3h56.9c10.7,0,19.3,8.7,19.3,19.3
	l0,60.5C397.7,466.3,389.1,474.9,378.4,475L378.4,475z M326.9,450.3h46.2v-49.9l-46.2,0V450.3z"/>
<path class="st0" d="M378.4,618.9h-56.9c-10.7,0-19.3-8.7-19.3-19.3v-60.5c0-10.7,8.7-19.3,19.3-19.3h56.9
	c10.7,0,19.3,8.7,19.3,19.3v60.5C397.7,610.3,389.1,618.9,378.4,618.9L378.4,618.9z M326.9,594.3h46.2v-49.9l-46.2,0L326.9,594.3z"
	/>
<path class="st0" d="M527.8,331h-56.9c-10.7,0-19.3-8.7-19.3-19.3v-60.5c0-10.7,8.7-19.3,19.3-19.3h56.9c10.7,0,19.4,8.7,19.4,19.3
	v60.5C547.2,322.3,538.5,331,527.8,331z M476.2,306.3h46.2v-49.9h-46.2V306.3z"/>
<path class="st0" d="M527.8,475h-56.9c-10.7,0-19.3-8.7-19.3-19.3v-60.5c0-10.7,8.7-19.3,19.3-19.3h56.9c10.7,0,19.4,8.7,19.4,19.3
	l0,60.5C547.2,466.3,538.5,475,527.8,475L527.8,475z M476.2,450.3h46.2v-49.9h-46.2V450.3z"/>
<path class="st0" d="M527.8,618.9h-56.9c-10.7,0-19.3-8.7-19.3-19.3v-60.5c0-10.7,8.7-19.3,19.3-19.3h56.9
	c10.7,0,19.4,8.7,19.4,19.3v60.5C547.2,610.3,538.5,619,527.8,618.9z M476.2,594.3h46.2v-49.9h-46.2V594.3z"/>
</svg>
