<?xml version="1.0" encoding="UTF-8"?>
<svg width="700pt" height="700pt" version="1.1" viewBox="0 0 700 700" xmlns="http://www.w3.org/2000/svg" xmlns:xlink="http://www.w3.org/1999/xlink">
 <defs>
  <symbol id="y" overflow="visible">
   <path d="m0.48438-0.03125c-0.023437 0.011719-0.046875 0.023438-0.078125 0.03125s-0.0625 0.015625-0.09375 0.015625c-0.085938 0-0.15234-0.023438-0.20312-0.078125-0.054688-0.050781-0.078125-0.11719-0.078125-0.20312 0-0.082031 0.023438-0.14844 0.078125-0.20312 0.050781-0.050781 0.11719-0.078125 0.20312-0.078125 0.03125 0 0.0625 0.007813 0.09375 0.015625 0.03125 0.011719 0.054688 0.023438 0.078125 0.03125v0.10938c-0.023437-0.019531-0.046875-0.03125-0.078125-0.03125-0.023438-0.007813-0.046875-0.015625-0.078125-0.015625-0.042969 0-0.078125 0.015625-0.10938 0.046875-0.023438 0.03125-0.03125 0.074219-0.03125 0.125 0 0.054687 0.007812 0.09375 0.03125 0.125 0.03125 0.03125 0.066406 0.046875 0.10938 0.046875h0.078125c0.03125-0.007812 0.054688-0.023438 0.078125-0.046875z"/>
  </symbol>
  <symbol id="a" overflow="visible">
   <path d="m0.34375-0.28125c0-0.007812-0.007812-0.015625-0.015625-0.015625-0.011719-0.007813-0.023437-0.015625-0.03125-0.015625-0.042969 0-0.074219 0.015625-0.09375 0.046875-0.011719 0.023437-0.015625 0.046875-0.015625 0.078125v0.1875h-0.125v-0.39062h0.125v0.0625c0.019531-0.03125 0.035156-0.050781 0.046875-0.0625 0.019531-0.007813 0.046875-0.015625 0.078125-0.015625h0.015625 0.015625z"/>
  </symbol>
  <symbol id="c" overflow="visible">
   <path d="m0.45312-0.20312v0.046875h-0.29688c0.007812 0.03125 0.019531 0.054688 0.03125 0.0625 0.019531 0.011719 0.046875 0.015625 0.078125 0.015625s0.054687-0.0039062 0.078125-0.015625c0.03125-0.007812 0.0625-0.019531 0.09375-0.03125v0.10938c-0.03125 0-0.0625 0.0078125-0.09375 0.015625-0.023438 0.0078125-0.046875 0.015625-0.078125 0.015625-0.085937 0-0.14844-0.019531-0.1875-0.0625-0.03125-0.039062-0.046875-0.085937-0.046875-0.14062 0-0.070312 0.015625-0.125 0.046875-0.15625 0.039063-0.039062 0.097656-0.0625 0.17188-0.0625 0.0625 0 0.10938 0.023438 0.14062 0.0625 0.039063 0.03125 0.0625 0.078125 0.0625 0.14062zm-0.125-0.03125c0-0.03125-0.011719-0.050781-0.03125-0.0625-0.011719-0.007813-0.027344-0.015625-0.046875-0.015625-0.023438 0-0.042969 0.007812-0.0625 0.015625-0.011719 0.011719-0.023438 0.03125-0.03125 0.0625z"/>
  </symbol>
  <symbol id="e" overflow="visible">
   <path d="m0.23438-0.1875c-0.023437 0-0.042969 0.011719-0.0625 0.03125-0.011719 0.011719-0.015625 0.023438-0.015625 0.03125 0 0.011719 0.003906 0.023438 0.015625 0.03125 0.007813 0.011719 0.023437 0.015625 0.046875 0.015625 0.03125 0 0.050781-0.0039062 0.0625-0.015625 0.019531-0.019531 0.03125-0.039062 0.03125-0.0625v-0.03125zm0.1875-0.03125v0.21875h-0.10938v-0.0625c-0.023438 0.03125-0.042969 0.054688-0.0625 0.0625-0.023438 0.0078125-0.046875 0.015625-0.078125 0.015625-0.042969 0-0.078125-0.011719-0.10938-0.03125-0.023438-0.03125-0.03125-0.066406-0.03125-0.10938 0-0.039062 0.015625-0.070312 0.046875-0.09375 0.03125-0.019531 0.078125-0.03125 0.14062-0.03125h0.09375v-0.015625c0-0.019531-0.011719-0.03125-0.03125-0.03125-0.011719-0.007813-0.039062-0.015625-0.078125-0.015625h-0.078125c-0.023438 0-0.042969 0.007812-0.0625 0.015625v-0.09375h0.078125c0.03125-0.007813 0.054687-0.015625 0.078125-0.015625 0.082031 0 0.13281 0.015625 0.15625 0.046875 0.03125 0.03125 0.046875 0.078125 0.046875 0.14062z"/>
  </symbol>
  <symbol id="b" overflow="visible">
   <path d="m0.20312-0.51562v0.125h0.125v0.078125h-0.125v0.17188 0.046875h0.046875 0.0625v0.09375h-0.09375c-0.054688 0-0.09375-0.0078125-0.125-0.03125-0.023438-0.019531-0.03125-0.054688-0.03125-0.10938v-0.17188h-0.046875v-0.078125h0.046875v-0.125z"/>
  </symbol>
  <symbol id="j" overflow="visible">
   <path d="m0.32812-0.34375v-0.20312h0.125v0.54688h-0.125v-0.0625c-0.011719 0.03125-0.03125 0.054688-0.0625 0.0625-0.023437 0.0078125-0.042969 0.015625-0.0625 0.015625-0.054687 0-0.09375-0.019531-0.125-0.0625-0.03125-0.039062-0.046875-0.085937-0.046875-0.14062 0-0.070312 0.015625-0.125 0.046875-0.15625 0.03125-0.039062 0.070313-0.0625 0.125-0.0625 0.019531 0 0.039063 0.007812 0.0625 0.015625 0.03125 0.011719 0.050781 0.027344 0.0625 0.046875zm-0.078125 0.26562c0.019531 0 0.035156-0.0078125 0.046875-0.03125 0.019531-0.019531 0.03125-0.046875 0.03125-0.078125 0-0.039062-0.011719-0.070312-0.03125-0.09375-0.011719-0.019531-0.027344-0.03125-0.046875-0.03125-0.03125 0-0.058594 0.011719-0.078125 0.03125-0.011719 0.023438-0.015625 0.054688-0.015625 0.09375 0 0.03125 0.003906 0.058594 0.015625 0.078125 0.019531 0.023438 0.046875 0.03125 0.078125 0.03125z"/>
  </symbol>
  <symbol id="i" overflow="visible">
   <path d="m0.26562-0.078125c0.03125 0 0.050781-0.0078125 0.0625-0.03125 0.007813-0.019531 0.015625-0.046875 0.015625-0.078125 0-0.039062-0.007812-0.070312-0.015625-0.09375-0.011719-0.019531-0.03125-0.03125-0.0625-0.03125s-0.054687 0.011719-0.0625 0.03125c-0.011719 0.023438-0.015625 0.054688-0.015625 0.09375 0 0.03125 0.003906 0.058594 0.015625 0.078125 0.007813 0.023438 0.03125 0.03125 0.0625 0.03125zm-0.078125-0.26562c0.019531-0.019531 0.039062-0.035156 0.0625-0.046875 0.019531-0.007813 0.039062-0.015625 0.0625-0.015625 0.050781 0 0.09375 0.023438 0.125 0.0625 0.03125 0.03125 0.046875 0.085938 0.046875 0.15625 0 0.054688-0.015625 0.10156-0.046875 0.14062-0.03125 0.042969-0.074219 0.0625-0.125 0.0625-0.023438 0-0.042969-0.0078125-0.0625-0.015625-0.023438-0.0078125-0.042969-0.03125-0.0625-0.0625v0.0625h-0.125v-0.54688h0.125z"/>
  </symbol>
  <symbol id="h" overflow="visible">
   <path d="m0.015625-0.39062h0.125l0.09375 0.26562 0.09375-0.26562h0.14062l-0.17188 0.42188c-0.023437 0.050781-0.042969 0.082031-0.0625 0.09375-0.023437 0.019531-0.054687 0.03125-0.09375 0.03125h-0.078125v-0.09375h0.046875 0.046875c0.007812 0 0.019531-0.015625 0.03125-0.046875z"/>
  </symbol>
  <symbol id="g" overflow="visible">
   <path d="m0.54688-0.03125c-0.042969 0.011719-0.078125 0.023438-0.10938 0.03125s-0.074219 0.015625-0.125 0.015625c-0.085938 0-0.15234-0.023438-0.20312-0.078125-0.054688-0.050781-0.078125-0.11719-0.078125-0.20312 0-0.082031 0.023438-0.14844 0.078125-0.20312 0.050781-0.050781 0.125-0.078125 0.21875-0.078125 0.039063 0 0.070313 0.007813 0.09375 0.015625 0.03125 0.011719 0.0625 0.023438 0.09375 0.03125v0.10938c-0.03125-0.019531-0.0625-0.03125-0.09375-0.03125-0.023437-0.007813-0.046875-0.015625-0.078125-0.015625-0.054688 0-0.09375 0.015625-0.125 0.046875-0.023438 0.03125-0.03125 0.074219-0.03125 0.125 0 0.054687 0.007812 0.09375 0.03125 0.125 0.03125 0.03125 0.070312 0.046875 0.125 0.046875h0.03125c0.007812 0 0.019531-0.0039062 0.03125-0.015625v-0.09375h-0.078125v-0.09375h0.21875z"/>
  </symbol>
  <symbol id="x" overflow="visible">
   <path d="m0.1875-0.0625v0.20312h-0.125v-0.53125h0.125v0.046875c0.019531-0.019531 0.039062-0.035156 0.0625-0.046875 0.019531-0.007813 0.039062-0.015625 0.0625-0.015625 0.050781 0 0.09375 0.023438 0.125 0.0625 0.03125 0.03125 0.046875 0.085938 0.046875 0.15625 0 0.054688-0.015625 0.10156-0.046875 0.14062-0.03125 0.042969-0.074219 0.0625-0.125 0.0625-0.023438 0-0.042969-0.0078125-0.0625-0.015625-0.023438-0.0078125-0.042969-0.03125-0.0625-0.0625zm0.078125-0.25c-0.03125 0-0.054687 0.011719-0.0625 0.03125-0.011719 0.023438-0.015625 0.054688-0.015625 0.09375 0 0.03125 0.003906 0.058594 0.015625 0.078125 0.007813 0.023438 0.03125 0.03125 0.0625 0.03125s0.050781-0.0078125 0.0625-0.03125c0.007813-0.019531 0.015625-0.046875 0.015625-0.078125 0-0.039062-0.007812-0.070312-0.015625-0.09375-0.011719-0.019531-0.03125-0.03125-0.0625-0.03125z"/>
  </symbol>
  <symbol id="f" overflow="visible">
   <path d="m0.46875-0.23438v0.23438h-0.14062v-0.1875-0.0625c0-0.007812-0.007813-0.019531-0.015625-0.03125 0-0.007812-0.007812-0.015625-0.015625-0.015625 0-0.007813-0.011719-0.015625-0.03125-0.015625-0.023437 0-0.042969 0.011719-0.0625 0.03125-0.011719 0.023438-0.015625 0.054688-0.015625 0.09375v0.1875h-0.125v-0.54688h0.125v0.20312c0.019531-0.019531 0.039062-0.035156 0.0625-0.046875 0.019531-0.007813 0.039062-0.015625 0.0625-0.015625 0.050781 0 0.085938 0.015625 0.10938 0.046875 0.03125 0.03125 0.046875 0.074219 0.046875 0.125z"/>
  </symbol>
  <symbol id="w" overflow="visible">
   <path d="m0.0625-0.39062h0.125v0.39062h-0.125zm0-0.15625h0.125v0.09375h-0.125z"/>
  </symbol>
  <symbol id="v" overflow="visible">
   <path d="m0.15625-0.20312-0.14062-0.1875h0.125l0.09375 0.10938 0.078125-0.10938h0.14062l-0.14062 0.1875 0.14062 0.20312h-0.14062l-0.078125-0.125-0.09375 0.125h-0.125z"/>
  </symbol>
  <symbol id="u" overflow="visible">
   <path d="m0.375-0.39062v0.10938c-0.03125-0.019531-0.0625-0.03125-0.09375-0.03125h-0.0625-0.0625c-0.011719 0-0.015625 0.011719-0.015625 0.03125 0 0.011719 0.003906 0.023438 0.015625 0.03125h0.0625 0.015625c0.0625 0.011719 0.10156 0.027344 0.125 0.046875 0.019531 0.011719 0.03125 0.042969 0.03125 0.09375 0 0.03125-0.015625 0.0625-0.046875 0.09375-0.023438 0.019531-0.0625 0.03125-0.125 0.03125-0.03125 0-0.0625-0.0078125-0.09375-0.015625-0.023438 0-0.046875-0.0039062-0.078125-0.015625v-0.09375c0.019531 0.011719 0.039062 0.023438 0.0625 0.03125h0.09375 0.046875c0.007812-0.0078125 0.015625-0.019531 0.015625-0.03125 0-0.019531-0.007813-0.03125-0.015625-0.03125 0 0-0.011719-0.003906-0.03125-0.015625h-0.03125c-0.054688-0.007812-0.09375-0.019531-0.125-0.03125-0.023438-0.019531-0.03125-0.050781-0.03125-0.09375 0-0.039062 0.015625-0.070312 0.046875-0.09375 0.03125-0.019531 0.078125-0.03125 0.14062-0.03125 0.019531 0 0.039062 0.007812 0.0625 0.015625h0.09375z"/>
  </symbol>
  <symbol id="t" overflow="visible">
   <path d="m0.35938 0.10938v0.0625h-0.35938v-0.0625z"/>
  </symbol>
  <symbol id="s" overflow="visible">
   <path d="m0.39062-0.10938h-0.21875l-0.03125 0.10938h-0.14062l0.20312-0.53125h0.15625l0.1875 0.53125h-0.125zm-0.1875-0.078125h0.14062l-0.0625-0.21875z"/>
  </symbol>
  <symbol id="r" overflow="visible">
   <path d="m0.3125-0.54688v0.078125h-0.0625c-0.023438 0-0.039062 0.007812-0.046875 0.015625v0.03125 0.03125h0.10938v0.078125h-0.10938v0.3125h-0.125v-0.3125h-0.0625v-0.078125h0.0625v-0.03125c0-0.039063 0.0078125-0.070313 0.03125-0.09375 0.019531-0.019531 0.054687-0.03125 0.10938-0.03125z"/>
  </symbol>
  <symbol id="d" overflow="visible">
   <path d="m0.25-0.3125c-0.03125 0-0.058594 0.011719-0.078125 0.03125-0.011719 0.011719-0.015625 0.042969-0.015625 0.09375 0 0.03125 0.003906 0.058594 0.015625 0.078125 0.019531 0.023438 0.046875 0.03125 0.078125 0.03125s0.050781-0.0078125 0.0625-0.03125c0.019531-0.019531 0.03125-0.046875 0.03125-0.078125 0-0.050781-0.011719-0.082031-0.03125-0.09375-0.011719-0.019531-0.03125-0.03125-0.0625-0.03125zm0-0.09375c0.0625 0 0.11328 0.023438 0.15625 0.0625 0.039062 0.03125 0.0625 0.085938 0.0625 0.15625 0 0.054688-0.023438 0.10156-0.0625 0.14062-0.042969 0.042969-0.09375 0.0625-0.15625 0.0625-0.074219 0-0.13281-0.019531-0.17188-0.0625-0.03125-0.039062-0.046875-0.085937-0.046875-0.14062 0-0.070312 0.015625-0.125 0.046875-0.15625 0.039063-0.039062 0.097656-0.0625 0.17188-0.0625z"/>
  </symbol>
  <symbol id="q" overflow="visible">
   <path d="m0.42188-0.32812c0.019531-0.019531 0.039063-0.035156 0.0625-0.046875 0.019531-0.019531 0.039063-0.03125 0.0625-0.03125 0.050781 0 0.085937 0.015625 0.10938 0.046875 0.03125 0.03125 0.046875 0.074219 0.046875 0.125v0.23438h-0.14062v-0.20312-0.015625c0-0.03125-0.007812-0.050781-0.015625-0.0625 0-0.019531-0.011719-0.03125-0.03125-0.03125-0.023437 0-0.042969 0.011719-0.0625 0.03125-0.011719 0.023438-0.015625 0.054688-0.015625 0.09375v0.1875h-0.125v-0.20312c0-0.039063-0.007812-0.066406-0.015625-0.078125 0-0.019531-0.011719-0.03125-0.03125-0.03125-0.03125 0-0.054687 0.011719-0.0625 0.03125-0.011719 0.023438-0.015625 0.054688-0.015625 0.09375v0.1875h-0.125v-0.39062h0.125v0.046875l0.046875-0.046875c0.019531-0.007813 0.046875-0.015625 0.078125-0.015625 0.019531 0 0.039062 0.011719 0.0625 0.03125 0.019531 0.011719 0.035156 0.027344 0.046875 0.046875z"/>
  </symbol>
  <symbol id="p" overflow="visible">
   <path d="m0.0625-0.53125h0.15625l0.1875 0.35938v-0.35938h0.14062v0.53125h-0.15625l-0.20312-0.35938v0.35938h-0.125z"/>
  </symbol>
  <symbol id="o" overflow="visible">
   <path d="m0.0625-0.15625v-0.23438h0.125v0.03125 0.09375 0.046875 0.078125 0.03125c0.007812 0 0.015625 0.007813 0.015625 0.015625h0.046875c0.019531 0 0.035156-0.0039062 0.046875-0.015625 0.019531-0.019531 0.03125-0.050781 0.03125-0.09375v-0.1875h0.125v0.39062h-0.125v-0.0625c-0.023437 0.03125-0.042969 0.054688-0.0625 0.0625-0.023437 0.0078125-0.046875 0.015625-0.078125 0.015625-0.042969 0-0.074219-0.015625-0.09375-0.046875-0.023438-0.03125-0.03125-0.070312-0.03125-0.125z"/>
  </symbol>
  <symbol id="n" overflow="visible">
   <path d="m0.46875-0.23438v0.23438h-0.14062v-0.1875-0.0625c0-0.007812-0.007813-0.019531-0.015625-0.03125 0-0.007812-0.007812-0.015625-0.015625-0.015625 0-0.007813-0.011719-0.015625-0.03125-0.015625-0.023437 0-0.042969 0.011719-0.0625 0.03125-0.011719 0.023438-0.015625 0.054688-0.015625 0.09375v0.1875h-0.125v-0.39062h0.125v0.046875c0.019531-0.019531 0.039062-0.035156 0.0625-0.046875 0.019531-0.007813 0.039062-0.015625 0.0625-0.015625 0.050781 0 0.085938 0.015625 0.10938 0.046875 0.03125 0.03125 0.046875 0.074219 0.046875 0.125z"/>
  </symbol>
  <symbol id="m" overflow="visible">
   <path d="m0.0625-0.53125h0.23438c0.0625 0 0.10938 0.015625 0.14062 0.046875 0.039062 0.03125 0.0625 0.078125 0.0625 0.14062 0 0.054688-0.023438 0.09375-0.0625 0.125-0.03125 0.023438-0.078125 0.03125-0.14062 0.03125h-0.09375v0.1875h-0.14062zm0.14062 0.10938v0.14062h0.078125c0.019531 0 0.035156-0.003906 0.046875-0.015625 0.019531-0.007813 0.03125-0.023437 0.03125-0.046875 0-0.03125-0.011719-0.050781-0.03125-0.0625-0.011719-0.007812-0.027344-0.015625-0.046875-0.015625z"/>
  </symbol>
  <symbol id="l" overflow="visible">
   <path d="m0.0625-0.39062h0.125v0.375c0 0.050781-0.015625 0.09375-0.046875 0.125-0.023437 0.03125-0.058594 0.046875-0.10938 0.046875h-0.046875v-0.09375h0.015625c0.019531 0 0.035156-0.0078125 0.046875-0.015625 0.0078125 0 0.015625-0.023438 0.015625-0.0625zm0-0.15625h0.125v0.09375h-0.125z"/>
  </symbol>
  <symbol id="k" overflow="visible">
   <path d="m0.39062-0.39062v0.10938c-0.03125-0.007812-0.054687-0.015625-0.0625-0.015625-0.011719-0.007813-0.03125-0.015625-0.0625-0.015625s-0.058594 0.011719-0.078125 0.03125c-0.023438 0.023438-0.03125 0.054688-0.03125 0.09375 0 0.03125 0.007812 0.058594 0.03125 0.078125 0.019531 0.023438 0.046875 0.03125 0.078125 0.03125s0.050781-0.0039062 0.0625-0.015625c0.019531-0.007812 0.039063-0.015625 0.0625-0.015625v0.09375c-0.03125 0.011719-0.058594 0.015625-0.078125 0.015625-0.011719 0.0078125-0.027344 0.015625-0.046875 0.015625-0.085937 0-0.14844-0.019531-0.1875-0.0625-0.03125-0.039062-0.046875-0.085937-0.046875-0.14062 0-0.070312 0.015625-0.125 0.046875-0.15625 0.039063-0.039062 0.10156-0.0625 0.1875-0.0625 0.019531 0 0.035156 0.007812 0.046875 0.015625h0.078125z"/>
  </symbol>
 </defs>
 <g>
  <path d="m508.18 512.96h-316.37c-13.664-0.015625-24.738-11.09-24.754-24.754v-416.42c0.015625-13.664 11.09-24.738 24.754-24.754h316.35c13.664 0.015625 24.738 11.09 24.754 24.754v416.44c0 13.648-11.074 24.723-24.738 24.738zm-316.37-448.43c-4.0039 0-7.2578 3.2539-7.2578 7.2578v416.44c0 4.0039 3.2539 7.2578 7.2578 7.2578h316.35c4.0039 0 7.2578-3.2539 7.2578-7.2578v-416.44c0-4.0039-3.2539-7.2578-7.2578-7.2578z"/>
  <path d="m484.63 173.54h-269.26c-8.9219-0.015624-16.137-7.2422-16.152-16.152l0.003906-53.008c0.015625-8.9062 7.2305-16.137 16.152-16.152h269.26c8.9062 0.015626 16.137 7.2305 16.152 16.152v53.008c-0.019531 8.9062-7.2344 16.137-16.156 16.152zm-267.9-17.512h266.54v-50.316h-266.54z"/>
  <path d="m264.16 266.5h-40.383c-7.6055 0.015625-13.766-6.1445-13.781-13.734v-42.957c0.015624-7.5781 6.1602-13.723 13.734-13.734h40.383c7.5781 0.015626 13.723 6.1602 13.734 13.734v42.957c0.003906 7.5742-6.1094 13.703-13.688 13.734zm-36.609-17.496h32.809v-35.426h-32.852z"/>
  <path d="m264.16 368.71h-40.383c-7.6055 0.015625-13.766-6.1445-13.781-13.734v-42.957c0.015624-7.5781 6.1602-13.723 13.734-13.734h40.383c7.5898 0 13.734 6.1602 13.734 13.734l0.003906 42.953c0 7.5625-6.1133 13.695-13.691 13.738zm-36.652-17.512h32.809v-35.426h-32.809z"/>
  <path d="m264.16 470.9h-40.383c-7.5898 0.015625-13.75-6.1289-13.781-13.723v-42.973c0.015624-7.5781 6.1602-13.723 13.734-13.734h40.383c7.5898 0 13.734 6.1602 13.734 13.734v42.973c-0.007812 7.5625-6.125 13.68-13.688 13.723zm-36.609-17.496h32.809v-35.426h-32.852z"/>
  <path d="m370.18 266.5h-40.383c-7.5781-0.027344-13.707-6.1602-13.723-13.734v-42.957c0.015625-7.5781 6.1602-13.723 13.734-13.734h40.383c7.5625 0.027344 13.68 6.1758 13.691 13.734v42.957c0.003906 7.5742-6.125 13.719-13.703 13.734zm-36.609-17.496h32.809v-35.426h-32.793z"/>
  <path d="m370.18 368.71h-40.383c-7.5781-0.027343-13.707-6.1602-13.723-13.734v-42.957c0.015625-7.5781 6.1602-13.723 13.734-13.734h40.383c7.5625 0.027344 13.68 6.1758 13.691 13.734l0.003906 42.953c0 7.5625-6.1289 13.707-13.707 13.738zm-36.594-17.512h32.82v-35.426l-32.82 0.003907z"/>
  <path d="m370.18 470.9h-40.383c-7.5625-0.027344-13.691-6.1445-13.723-13.723v-42.973c0.015625-7.5781 6.1602-13.723 13.734-13.734h40.383c7.5625 0.027344 13.68 6.1758 13.691 13.734v42.973c-0.007813 7.5625-6.125 13.695-13.703 13.723zm-36.609-17.496h32.809v-35.426l-32.793 0.003906z"/>
  <path d="m476.21 266.5h-40.383c-7.5781-0.015625-13.723-6.1602-13.734-13.734v-42.957c0.015625-7.5781 6.1602-13.723 13.734-13.734h40.383c7.6055-0.015624 13.766 6.1445 13.781 13.734v42.957c-0.003906 7.6016-6.1758 13.746-13.781 13.734zm-36.613-17.496h32.809v-35.426h-32.809z"/>
  <path d="m476.21 368.71h-40.383c-7.5781-0.015625-13.723-6.1602-13.734-13.734v-42.957c0-7.5898 6.1602-13.734 13.734-13.734h40.383c7.6055-0.015625 13.766 6.1445 13.781 13.734l-0.003906 42.953c0 7.5938-6.1719 13.738-13.777 13.738zm-36.613-17.512h32.809v-35.426h-32.809z"/>
  <path d="m476.21 470.9h-40.383c-7.5781-0.015625-13.707-6.1445-13.734-13.723v-42.973c0-7.5898 6.1602-13.734 13.734-13.734h40.383c7.6055-0.015625 13.766 6.1445 13.781 13.734v42.973c-0.019532 7.5938-6.1914 13.738-13.781 13.723zm-36.613-17.496h32.809v-35.426h-32.809z"/>
  <use x="70" y="562.167969" xlink:href="#y"/>
  <use x="70.53125" y="562.167969" xlink:href="#a"/>
  <use x="70.886719" y="562.167969" xlink:href="#c"/>
  <use x="71.378906" y="562.167969" xlink:href="#e"/>
  <use x="71.867188" y="562.167969" xlink:href="#b"/>
  <use x="72.210938" y="562.167969" xlink:href="#c"/>
  <use x="72.703125" y="562.167969" xlink:href="#j"/>
  <use x="73.46875" y="562.167969" xlink:href="#i"/>
  <use x="73.988281" y="562.167969" xlink:href="#h"/>
  <use x="74.710938" y="562.167969" xlink:href="#g"/>
  <use x="75.304688" y="562.167969" xlink:href="#a"/>
  <use x="75.660156" y="562.167969" xlink:href="#e"/>
  <use x="76.148438" y="562.167969" xlink:href="#x"/>
  <use x="76.667969" y="562.167969" xlink:href="#f"/>
  <use x="77.179688" y="562.167969" xlink:href="#w"/>
  <use x="77.429688" y="562.167969" xlink:href="#v"/>
  <use x="77.894531" y="562.167969" xlink:href="#u"/>
  <use x="78.324219" y="562.167969" xlink:href="#t"/>
  <use x="78.6875" y="562.167969" xlink:href="#s"/>
  <use x="79.246094" y="562.167969" xlink:href="#a"/>
  <use x="79.601562" y="562.167969" xlink:href="#b"/>
  <use x="70" y="562.890625" xlink:href="#r"/>
  <use x="70.316406" y="562.890625" xlink:href="#a"/>
  <use x="70.671875" y="562.890625" xlink:href="#d"/>
  <use x="71.167969" y="562.890625" xlink:href="#q"/>
  <use x="72.171875" y="562.890625" xlink:href="#b"/>
  <use x="72.519531" y="562.890625" xlink:href="#f"/>
  <use x="73.03125" y="562.890625" xlink:href="#c"/>
  <use x="73.773438" y="562.890625" xlink:href="#p"/>
  <use x="74.378906" y="562.890625" xlink:href="#d"/>
  <use x="74.875" y="562.890625" xlink:href="#o"/>
  <use x="75.390625" y="562.890625" xlink:href="#n"/>
  <use x="76.15625" y="562.890625" xlink:href="#m"/>
  <use x="76.6875" y="562.890625" xlink:href="#a"/>
  <use x="77.042969" y="562.890625" xlink:href="#d"/>
  <use x="77.539062" y="562.890625" xlink:href="#l"/>
  <use x="77.789062" y="562.890625" xlink:href="#c"/>
  <use x="78.277344" y="562.890625" xlink:href="#k"/>
  <use x="78.707031" y="562.890625" xlink:href="#b"/>
 </g>
</svg>
