<?xml version="1.0" encoding="utf-8"?>
<!-- Generator: Adobe Illustrator 27.5.0, SVG Export Plug-In . SVG Version: 6.00 Build 0)  -->
<svg version="1.1" id="Layer_1" xmlns="http://www.w3.org/2000/svg" xmlns:xlink="http://www.w3.org/1999/xlink" x="0px" y="0px"
	 viewBox="0 0 700 700" style="enable-background:new 0 0 700 700;" xml:space="preserve">
<style type="text/css">
	.st0{fill:#1E3A57;}
</style>
<path class="st0" d="M116.3,245.2c-57.6,0-104.8,47.2-104.8,104.8s47.2,104.8,104.8,104.8c57.6,0,104.8-47.2,104.8-104.8
	S173.9,245.2,116.3,245.2z M350.1,245.2c-57.6,0-104.8,47.2-104.8,104.8s47.2,104.8,104.8,104.8c57.6,0,104.8-47.2,104.8-104.8
	S407.7,245.2,350.1,245.2z M583.9,245.2C526.3,245.2,479,292.4,479,350s47.2,104.8,104.8,104.8c57.6,0,104.6-47.2,104.6-104.8
	S641.5,245.2,583.9,245.2L583.9,245.2z M116.3,287.6c34.7,0,62.4,27.7,62.4,62.4s-27.7,62.5-62.4,62.5c-34.7,0-62.5-27.7-62.5-62.5
	S81.6,287.6,116.3,287.6L116.3,287.6z M350.1,287.6c34.7,0,62.4,27.7,62.4,62.4s-27.7,62.5-62.4,62.5c-34.7,0-62.5-27.7-62.5-62.5
	S315.3,287.6,350.1,287.6L350.1,287.6z M583.9,287.6c34.7,0,62.3,27.7,62.3,62.4s-27.6,62.5-62.3,62.5c-34.7,0-62.5-27.7-62.5-62.5
	S549.1,287.6,583.9,287.6L583.9,287.6z"/>
</svg>
