<?xml version="1.0" encoding="UTF-8"?>
<svg width="700pt" height="700pt" version="1.1" viewBox="0 0 700 700" xmlns="http://www.w3.org/2000/svg">
 <path d="m156.68 193.32c-47.648 0-86.68 39.031-86.68 86.68s39.031 86.68 86.68 86.68c47.648 0 86.68-39.031 86.68-86.68s-39.031-86.68-86.68-86.68zm193.39 0c-47.648 0-86.68 39.031-86.68 86.68s39.031 86.68 86.68 86.68c47.648 0 86.68-39.031 86.68-86.68s-39.031-86.68-86.68-86.68zm193.39 0c-47.648 0-86.715 39.031-86.715 86.68s39.062 86.68 86.715 86.68c47.648 0 86.543-39.031 86.543-86.68s-38.895-86.68-86.543-86.68zm-386.78 35.035c28.734 0 51.645 22.91 51.645 51.645s-22.91 51.68-51.645 51.68c-28.734 0-51.68-22.945-51.68-51.68s22.945-51.645 51.68-51.645zm193.39 0c28.734 0 51.645 22.91 51.645 51.645s-22.91 51.68-51.645 51.68c-28.734 0-51.68-22.945-51.68-51.68s22.945-51.645 51.68-51.645zm193.39 0c28.734 0 51.543 22.91 51.543 51.645s-22.809 51.68-51.543 51.68-51.68-22.945-51.68-51.68 22.945-51.645 51.68-51.645z"/>
</svg>
