<?xml version="1.0" encoding="utf-8"?>
<!-- Generator: Adobe Illustrator 27.5.0, SVG Export Plug-In . SVG Version: 6.00 Build 0)  -->
<svg version="1.1" id="Layer_1" xmlns="http://www.w3.org/2000/svg" xmlns:xlink="http://www.w3.org/1999/xlink" x="0px" y="0px"
	 viewBox="0 0 700 700" style="enable-background:new 0 0 700 700;" xml:space="preserve">
<style type="text/css">
	.st0{fill:#1E3A57;}
</style>
<path class="st0" d="M425.5,313c42.3-22.6,72.3-63,81.6-110c9.4-47-2.8-95.8-33.3-132.9C443.4,33,397.9,11.5,350,11.5
	S256.6,33,226.1,70.1c-30.4,37.1-42.6,85.8-33.3,132.9c9.4,47,39.3,87.4,81.6,110c-52.4,16.2-98.3,48.8-130.9,93
	c-32.6,44.2-50.2,97.6-50.3,152.5c-0.1,14,1,28.1,3.3,41.9c0.9,4.7,3.6,8.9,7.6,11.5C175.9,663.3,262,691,350.4,691
	s174.4-27.7,246.2-79.1c4-2.7,6.7-6.8,7.6-11.5c2-13.9,2.9-27.9,2.6-41.9c-0.1-54.9-17.7-108.3-50.3-152.5
	C523.8,361.8,477.9,329.2,425.5,313L425.5,313z M225.5,171.7c0-33,13.1-64.7,36.5-88c23.3-23.3,55-36.5,88-36.5s64.7,13.1,88,36.5
	s36.5,55,36.5,88s-13.1,64.7-36.5,88s-55,36.5-88,36.5c-33,0-64.6-13.2-88-36.5C238.7,236.4,225.5,204.7,225.5,171.7L225.5,171.7z
	 M568.9,587.2c-64.5,44.3-140.9,68-219.2,68c-78.3,0-154.7-23.7-219.2-68c-1.2-9.5-1.8-19.1-1.8-28.7c-0.7-39.3,9-78,28.2-112.2
	c19.2-34.2,47.2-62.8,81.1-82.6s72.4-30.3,111.7-30.3s77.8,10.5,111.7,30.3c33.9,19.8,61.9,48.3,81.1,82.6
	c19.2,34.2,29,73,28.2,112.2C570.7,568.1,570.1,577.7,568.9,587.2L568.9,587.2z"/>
</svg>
