<?xml version="1.0" encoding="utf-8"?>
<!-- Generator: Adobe Illustrator 27.5.0, SVG Export Plug-In . SVG Version: 6.00 Build 0)  -->
<svg version="1.1" id="Layer_1" xmlns="http://www.w3.org/2000/svg" xmlns:xlink="http://www.w3.org/1999/xlink" x="0px" y="0px"
	 viewBox="0 0 700 700" style="enable-background:new 0 0 700 700;" xml:space="preserve">
<style type="text/css">
	.st0{fill:#1E3A57;}
</style>
<path class="st0" d="M74.3,30.2c-27.5,2.6-49.6,24.5-50.2,51.1c6,180.3,63.1,325.4,166.8,424.8c103.7,99.4,252.6,151.5,437.4,151.2
	c30.3,0.1,51.2-25.5,51.8-51.3c0.3-42.6,0.6-85.3,0.9-127.8c0-29.7-26.9-49-51.8-49.2c-38.3,0.2-91.6-13.8-134.8-24.5
	c-7.4-1.8-15.6,0.5-21,5.8l-71.1,69.1c-85.7-51.5-125-89.4-177.8-172.4l70.7-68.3c5.7-5.5,8.1-14.2,6.1-21.9
	c-11.6-43.6-30.8-100.3-27.8-140.2c-3-31.1-32.6-46.4-56-46.2L74.3,30.2L74.3,30.2z M74.5,75h143.9c7.2,0.1,7.2,0.1,10.7,6.8
	c-1.3,48.1,14.4,96.6,25.2,133.9L180.2,288c-7.2,7-8.8,19.2-3.5,27.8c63.8,103.4,111.1,149.3,217.4,211.3c8.4,4.9,19.9,3.5,26.8-3.3
	l74.9-73c40.6,10.3,89.3,23,133.7,22.9c3.2,0.6,6.4,5.2,6.8,5.6l-0.9,126.4c-1.6,3.6,0.9,6.9-8.4,6.8c-175.7,0-311.3-49-405-138.8
	c-93.9-90-147.3-222.3-153-394C68.9,75.2,68.9,75.2,74.5,75L74.5,75z"/>
</svg>
