<?xml version="1.0" encoding="utf-8"?>
<!-- Generator: Adobe Illustrator 27.5.0, SVG Export Plug-In . SVG Version: 6.00 Build 0)  -->
<svg version="1.1" id="Layer_1" xmlns="http://www.w3.org/2000/svg" xmlns:xlink="http://www.w3.org/1999/xlink" x="0px" y="0px"
	 viewBox="0 0 700 700" style="enable-background:new 0 0 700 700;" xml:space="preserve">
<style type="text/css">
	.st0{fill:#1E3A57;}
</style>
<g>
	<path class="st0" d="M350.1,126.8c-116.5,0-211,99.9-211,223.2h51.3c6.9,0,11.2,6,7.8,10.8l-81.4,113.2c-3.5,4.8-12.1,4.8-15.5,0
		L19.7,360.7c-3.4-4.8,0.9-10.8,7.8-10.8h51.3C78.8,191.5,200.3,63,350.1,63c76.4,0,145.4,33.4,194.6,87.1
		c11.6,12.6,11.3,32.8-0.6,45.1c-11.9,12.3-31,12-42.6-0.7C463.1,152.7,409.5,126.8,350.1,126.8L350.1,126.8z"/>
	<path class="st0" d="M598.8,226c-3.4-4.8-12.1-4.8-15.5,0l-81.4,113.2c-3.4,4.8,0.9,10.8,7.8,10.8h51.3
		c0,123.3-94.5,223.3-211,223.3c-58.4,0-111.2-25.1-149.5-65.7c-11.8-12.5-30.8-12.5-42.6-0.1c-11.8,12.4-11.8,32.6-0.1,45.1
		c49.1,52.1,117.1,84.4,192.2,84.4c149.8,0,271.3-128.5,271.3-287h51.3c6.9,0,11.2-6,7.8-10.8L598.8,226z"/>
</g>
</svg>
