<?xml version="1.0" encoding="UTF-8"?>
<svg width="700pt" height="700pt" version="1.1" viewBox="0 0 700 700" xmlns="http://www.w3.org/2000/svg">
 <g>
  <path d="m350.08 116.67c-90.223 0-163.37 73.117-163.4 163.33h39.707c5.3398 0 8.6758 4.3828 6.0078 7.8867l-63.055 82.816c-2.6719 3.5078-9.3438 3.5078-12.012 0l-63.055-82.816c-2.668-3.5039 0.66797-7.8867 6.0039-7.8867h39.734c0.039062-115.98 94.074-210 210.07-210 59.117 0 112.57 24.449 150.71 63.73 8.9805 9.2422 8.7617 24.016-0.48047 32.992-9.2461 8.9805-24.02 8.7617-32.996-0.48047-29.723-30.605-71.242-49.574-117.23-49.574z"/>
  <path d="m542.67 189.3c-2.668-3.5078-9.3438-3.5078-12.012 0l-63.055 82.816c-2.668 3.5039 0.66797 7.8867 6.0039 7.8867h39.723c0 90.246-73.156 163.41-163.4 163.41-45.227 0-86.125-18.344-115.73-48.055-9.0977-9.125-23.871-9.1484-33-0.050781-9.125 9.0977-9.1523 23.871-0.054687 32.996 38.012 38.133 90.66 61.777 148.79 61.777 116.02 0 210.07-94.055 210.07-210.07h39.723c5.3359 0 8.6719-4.3828 6.0039-7.8867z"/>
 </g>
</svg>
