<?xml version="1.0" encoding="utf-8"?>
<!-- Generator: Adobe Illustrator 27.5.0, SVG Export Plug-In . SVG Version: 6.00 Build 0)  -->
<svg version="1.1" id="Layer_1" xmlns="http://www.w3.org/2000/svg" xmlns:xlink="http://www.w3.org/1999/xlink" x="0px" y="0px"
	 viewBox="0 0 700 700" style="enable-background:new 0 0 700 700;" xml:space="preserve">
<symbol  id="a" viewBox="-8.2 -8 16.4 16.1">
	<path d="M8.2-0.1v1.4H-3.2c0.1,1.1,0.5,2,1.2,2.6c0.7,0.6,1.7,0.9,3,0.9c1,0,2.1-0.1,3.2-0.5C5.2,4,6.3,3.6,7.5,2.9v3.8
		C6.3,7.1,5.2,7.5,4,7.7C2.9,7.9,1.7,8,0.5,8c-2.8,0-4.9-0.7-6.5-2.1C-7.5,4.5-8.2,2.6-8.2,0c0-2.5,0.8-4.5,2.3-5.9
		C-4.4-7.3-2.4-8,0.3-8C2.7-8,4.6-7.3,6-5.9C7.5-4.4,8.2-2.5,8.2-0.1L8.2-0.1z M3.2-1.7c0-0.9-0.3-1.7-0.8-2.2
		C1.8-4.5,1.1-4.8,0.3-4.8c-0.9,0-1.7,0.3-2.3,0.8s-1,1.3-1.1,2.3H3.2z"/>
</symbol>
<symbol  id="b" viewBox="-6.2 -9.8 12.4 19.7">
	<path d="M1.1-9.8v4.3h5V-2h-5v6.5c0,0.7,0.1,1.2,0.4,1.4s0.8,0.4,1.7,0.4h2.5v3.5H1.6c-1.9,0-3.3-0.4-4.1-1.2
		c-0.8-0.8-1.2-2.2-1.2-4.1V-2h-2.4v-3.5h2.4v-4.3H1.1z"/>
</symbol>
<symbol  id="c" viewBox="-5.7 -7.8 11.4 15.7">
	<path d="M5.7-3.3C5.2-3.5,4.8-3.6,4.4-3.7C4-3.8,3.6-3.9,3.1-3.9c-1.3,0-2.2,0.4-2.9,1.2c-0.7,0.8-1,2-1,3.5v7.1h-4.9V-7.5h4.9V-5
		c0.6-1,1.3-1.7,2.2-2.2c0.8-0.5,1.8-0.7,2.9-0.7c0.2,0,0.3,0,0.5,0c0.2,0,0.5,0,0.8,0.1L5.7-3.3z"/>
</symbol>
<symbol  id="d" viewBox="-8.4 -8 16.8 16.1">
	<path d="M0-4.5c-1.1,0-1.9,0.4-2.5,1.2C-3-2.6-3.3-1.5-3.3,0S-3,2.6-2.5,3.4C-1.9,4.2-1.1,4.5,0,4.5c1.1,0,1.9-0.4,2.4-1.2
		C3,2.6,3.3,1.5,3.3,0S3-2.6,2.5-3.4C1.9-4.1,1.1-4.5,0-4.5z M0-8c2.6,0,4.7,0.7,6.2,2.1C7.7-4.5,8.4-2.5,8.4,0
		c0,2.5-0.7,4.5-2.2,5.9C4.7,7.3,2.7,8,0,8c-2.6,0-4.7-0.7-6.2-2.1C-7.7,4.5-8.4,2.5-8.4,0c0-2.5,0.7-4.5,2.2-5.9
		C-4.7-7.3-2.6-8,0-8z"/>
</symbol>
<symbol  id="e" viewBox="-8.2 -10.8 16.4 21.7">
	<path d="M3.3-2.6v-8.2h4.9v21.3H3.3V8.2c-0.7,0.9-1.4,1.6-2.2,2c-0.8,0.4-1.8,0.6-2.8,0.6c-1.9,0-3.4-0.8-4.6-2.2
		c-1.2-1.5-1.8-3.4-1.8-5.8c0-2.4,0.6-4.3,1.8-5.8c1.2-1.5,2.8-2.2,4.6-2.2c1.1,0,2,0.2,2.8,0.6C1.9-4.2,2.6-3.5,3.3-2.6L3.3-2.6z
		 M0.1,7.3c1,0,1.8-0.4,2.4-1.1C3,5.4,3.3,4.3,3.3,2.8c0-1.5-0.3-2.6-0.8-3.3C1.9-1.3,1.1-1.7,0.1-1.7c-1,0-1.8,0.4-2.4,1.2
		c-0.6,0.8-0.8,1.9-0.8,3.3c0,1.5,0.3,2.6,0.8,3.3C-1.8,6.9-1,7.3,0.1,7.3z"/>
</symbol>
<symbol  id="f" viewBox="-7.7 -7.9 15.4 15.7">
	<path d="M-7.7,1.5v-9.3h4.9v1.5c0,0.8,0,1.9,0,3.1c0,1.3,0,2.1,0,2.5c0,1.2,0,2.1,0.1,2.7c0.1,0.5,0.2,0.9,0.3,1.2
		c0.2,0.3,0.5,0.6,0.8,0.8c0.3,0.2,0.7,0.2,1.1,0.2c1,0,1.8-0.4,2.4-1.2c0.6-0.8,0.9-1.9,0.9-3.3v-7.6h4.9V7.5H2.8V5.2
		c-0.7,0.9-1.5,1.6-2.3,2c-0.8,0.4-1.7,0.6-2.7,0.6c-1.8,0-3.1-0.5-4-1.6C-7.2,5.1-7.7,3.6-7.7,1.5L-7.7,1.5z"/>
</symbol>
<symbol  id="g" viewBox="-7.7 -7.8 15.4 15.7">
	<path d="M7.7-1.5v9.3H2.8V0.7c0-1.3,0-2.2-0.1-2.7S2.5-2.9,2.4-3.1C2.2-3.5,1.9-3.7,1.6-3.9C1.3-4.1,0.9-4.1,0.5-4.1
		c-1,0-1.8,0.4-2.4,1.2c-0.6,0.8-0.9,1.9-0.9,3.3v7.5h-4.9V-7.5h4.9v2.2c0.7-0.9,1.5-1.5,2.3-2c0.8-0.4,1.8-0.6,2.8-0.6
		c1.8,0,3.1,0.5,4,1.6C7.2-5.1,7.7-3.5,7.7-1.5L7.7-1.5z"/>
</symbol>
<symbol  id="h" viewBox="-8.7 -10.6 17.4 21.2">
	<path d="M8.7,9.1c-1,0.5-2,0.9-3,1.1c-1,0.3-2.1,0.4-3.3,0.4c-3.4,0-6.1-0.9-8.1-2.8c-2-1.9-3-4.5-3-7.7c0-3.3,1-5.8,3-7.7
		c2-1.9,4.7-2.9,8.1-2.9c1.1,0,2.2,0.1,3.3,0.4c1.1,0.2,2.1,0.6,3,1.1v4.2C7.7-5.5,6.7-6,5.8-6.3c-0.9-0.3-1.9-0.5-3-0.5
		C0.9-6.8-0.6-6.2-1.6-5c-1.1,1.2-1.6,2.9-1.6,5c0,2.1,0.5,3.8,1.6,5c1.1,1.2,2.5,1.8,4.4,1.8c1.1,0,2.1-0.1,3-0.5
		C6.7,6,7.7,5.5,8.7,4.9V9.1z"/>
</symbol>
<symbol  id="i" viewBox="-10.7 -10.2 21.4 20.4">
	<path d="M4.1,6.5h-8.2l-1.3,3.7h-5.3l7.6-20.4h6.3l7.6,20.4H5.4L4.1,6.5z M-2.8,2.7h5.6L0-5.4L-2.8,2.7z"/>
</symbol>
<symbol  id="j" viewBox="-8.7 -10.7 17.4 21.4">
	<path d="M-8.7-10.7h4.9L0.3-0.3l3.5-10.4h4.9L2.3,6.1C1.6,7.8,0.9,9,0,9.6c-0.9,0.7-2,1-3.4,1h-2.8V7.5h1.5c0.8,0,1.4-0.1,1.8-0.4
		C-2.5,6.8-2.2,6.3-2,5.6l0.1-0.4L-8.7-10.7z"/>
</symbol>
<symbol  id="k" viewBox="-8.2 -10.8 16.4 21.7">
	<path d="M-0.1,7.3c1.1,0,1.9-0.4,2.4-1.1c0.6-0.8,0.8-1.9,0.8-3.3c0-1.5-0.3-2.6-0.8-3.3C1.8-1.3,1-1.7-0.1-1.7
		c-1.1,0-1.9,0.4-2.4,1.2C-3,0.2-3.3,1.4-3.3,2.8c0,1.4,0.3,2.6,0.8,3.3C-1.9,6.9-1.1,7.3-0.1,7.3L-0.1,7.3z M-3.3-2.6
		c0.7-0.9,1.4-1.5,2.2-2C-0.3-5,0.7-5.2,1.7-5.2c1.9,0,3.4,0.8,4.7,2.2c1.2,1.5,1.8,3.4,1.8,5.8c0,2.4-0.6,4.3-1.8,5.8
		c-1.2,1.5-2.8,2.2-4.7,2.2c-1.1,0-2-0.2-2.8-0.6c-0.8-0.4-1.6-1.1-2.2-2v2.2h-4.9v-21.3h4.9V-2.6z"/>
</symbol>
<symbol  id="l" viewBox="-7.7 -8 15.5 16.1">
	<path d="M0.3,0.8c-1,0-1.8,0.2-2.3,0.5c-0.5,0.3-0.8,0.9-0.8,1.5c0,0.6,0.2,1.1,0.6,1.5c0.4,0.3,1,0.5,1.7,0.5c0.9,0,1.7-0.3,2.3-1
		c0.6-0.7,1-1.5,1-2.5V0.8L0.3,0.8z M7.7-1.1v8.7H2.8V5.4C2.2,6.3,1.4,7,0.6,7.4C-0.2,7.8-1.2,8-2.4,8C-4,8-5.3,7.6-6.3,6.7
		c-1-0.9-1.5-2.1-1.5-3.6c0-1.8,0.6-3.1,1.8-3.9c1.2-0.8,3.2-1.3,5.8-1.3h2.9v-0.4c0-0.8-0.3-1.3-0.9-1.7C1.3-4.6,0.3-4.8-1-4.8
		c-1.1,0-2,0.1-2.9,0.3c-0.9,0.2-1.7,0.5-2.5,0.9v-3.7c1-0.2,2.1-0.4,3.1-0.6C-2.2-8-1.1-8-0.1-8c2.8,0,4.8,0.5,6,1.6
		C7.1-5.3,7.7-3.5,7.7-1.1L7.7-1.1z"/>
</symbol>
<symbol  id="m" viewBox="-6.8 -8 13.5 16.1">
	<path d="M6.8-7.2v4c-0.7-0.5-1.3-0.8-2-1C4.1-4.4,3.4-4.5,2.7-4.5c-1.4,0-2.4,0.4-3.2,1.2C-1.3-2.5-1.7-1.4-1.7,0
		c0,1.4,0.4,2.5,1.1,3.3c0.8,0.8,1.8,1.2,3.2,1.2c0.8,0,1.5-0.1,2.2-0.3c0.7-0.2,1.3-0.6,1.9-1v4C6,7.5,5.2,7.7,4.4,7.8
		C3.6,8,2.9,8,2.1,8c-2.8,0-4.9-0.7-6.5-2.1C-6,4.5-6.8,2.5-6.8,0c0-2.5,0.8-4.5,2.3-5.9C-2.9-7.3-0.7-8,2.1-8C2.9-8,3.6-8,4.4-7.8
		C5.2-7.7,6-7.5,6.8-7.2L6.8-7.2z"/>
</symbol>
<symbol  id="n" viewBox="-4.1 -13.7 8.2 27.3">
	<path d="M-0.8-7.7h4.9v15c0,2.1-0.5,3.6-1.5,4.7c-1,1.1-2.4,1.6-4.3,1.6h-2.4v-3.2h0.9c0.9,0,1.6-0.2,1.9-0.6
		C-1,9.4-0.8,8.6-0.8,7.3L-0.8-7.7z M-0.8-13.7h4.9v4h-4.9L-0.8-13.7z"/>
</symbol>
<symbol  id="o" viewBox="-8.4 -10.2 16.8 20.4">
	<path d="M-8.4-10.2h8.7c2.6,0,4.6,0.6,6,1.7c1.4,1.1,2.1,2.8,2.1,4.9c0,2.1-0.7,3.8-2.1,4.9c-1.4,1.2-3.4,1.7-6,1.7h-3.5v7.1h-5.2
		V-10.2z M-3.1-6.4v5.7h2.9c1,0,1.8-0.2,2.4-0.8C2.7-1.9,3-2.6,3-3.5c0-0.9-0.3-1.6-0.8-2.1C1.6-6.1,0.8-6.4-0.2-6.4L-3.1-6.4z"/>
</symbol>
<symbol  id="p" viewBox="-9.1 -10.2 18.3 20.4">
	<path d="M-9.1-10.2h5.9l7.4,14v-14h5v20.4H3.3l-7.4-14v14h-5V-10.2z"/>
</symbol>
<symbol  id="q" viewBox="-7.7 -10.6 15.4 21.3">
	<path d="M7.7,1.3v9.3H2.8V3.5c0-1.3,0-2.3-0.1-2.8S2.5-0.1,2.4-0.3C2.2-0.7,1.9-0.9,1.6-1.1C1.3-1.3,0.9-1.3,0.5-1.3
		c-1,0-1.8,0.4-2.4,1.2c-0.6,0.8-0.9,1.9-0.9,3.3v7.5h-4.9v-21.3h4.9v8.2c0.7-0.9,1.5-1.5,2.3-2C0.4-4.8,1.3-5,2.3-5
		c1.8,0,3.1,0.5,4,1.6C7.2-2.3,7.7-0.8,7.7,1.3L7.7,1.3z"/>
</symbol>
<symbol  id="r" viewBox="-12.3 -7.8 24.6 15.7">
	<path d="M1.9-4.9c0.6-0.9,1.3-1.7,2.2-2.2C5-7.6,5.9-7.8,6.9-7.8c1.8,0,3.1,0.5,4,1.6c0.9,1.1,1.4,2.7,1.4,4.7v9.3H7.4v-8v-0.4
		c0-0.1,0-0.3,0-0.6c0-1.1-0.2-1.9-0.5-2.3C6.6-3.9,6.1-4.1,5.4-4.1C4.5-4.1,3.8-3.8,3.2-3C2.7-2.2,2.5-1.1,2.5,0.3v7.5h-4.9v-8
		c0-1.7-0.1-2.8-0.4-3.3c-0.3-0.5-0.8-0.7-1.6-0.7c-0.9,0-1.7,0.4-2.2,1.2c-0.5,0.8-0.8,1.9-0.8,3.3v7.5h-4.9V-7.5h4.9v2.2
		c0.6-0.9,1.3-1.5,2.1-2c0.8-0.4,1.6-0.7,2.6-0.7c1.1,0,2,0.3,2.8,0.8C0.9-6.6,1.5-5.8,1.9-4.9L1.9-4.9z"/>
</symbol>
<symbol  id="s" viewBox="-5.9 -10.6 11.9 21.3">
	<path d="M5.9-10.6v3.2H3.2C2.6-7.4,2.1-7.3,1.8-7C1.5-6.8,1.4-6.4,1.4-5.7v1.1h4.2v3.5H1.4v11.8h-4.9V-1.2h-2.4v-3.5h2.4v-1.1
		c0-1.7,0.5-2.9,1.4-3.7c0.9-0.8,2.4-1.2,4.3-1.2L5.9-10.6z"/>
</symbol>
<symbol  id="t" viewBox="-8.2 -10.7 16.4 21.5">
	<path d="M0.1-7.2c-1,0-1.8,0.4-2.4,1.2c-0.6,0.8-0.8,1.9-0.8,3.3c0,1.5,0.3,2.6,0.8,3.3C-1.8,1.4-1,1.8,0.1,1.8
		c1,0,1.8-0.4,2.4-1.1C3-0.2,3.3-1.3,3.3-2.7c0-1.5-0.3-2.6-0.8-3.3C1.9-6.8,1.1-7.2,0.1-7.2z M3.3,2.7c-0.7,0.9-1.4,1.6-2.2,2
		C0.3,5.1-0.7,5.3-1.8,5.3c-1.9,0-3.4-0.8-4.6-2.3c-1.2-1.5-1.8-3.4-1.8-5.8c0-2.4,0.6-4.3,1.8-5.8c1.2-1.5,2.8-2.2,4.6-2.2
		c1.1,0,2,0.2,2.8,0.6c0.8,0.4,1.6,1.1,2.2,2v-2.3h4.9v21.1H3.3V2.7z"/>
</symbol>
<symbol  id="u" viewBox="-2.4 -10.6 4.9 21.3">
	<path d="M-2.4-4.7h4.9v15.3h-4.9L-2.4-4.7z M-2.4-10.6h4.9v4h-4.9L-2.4-10.6z"/>
</symbol>
<g>
	<path d="M147,463.7c6.7,9,20.7,9,27.4,0l59.4-76.7c9-11.2,0.6-28-14-28h-29.7V99.7c0-5.6-4.5-10.1-10.1-10.1H142
		c-5.6,0-10.1,4.5-10.1,10.1l0,259.3h-30.2c-14.6,0-22.4,16.8-14,28L147,463.7z"/>
	<path d="M606.5,89.6H292.9c-5,0-9.5,4.5-9.5,9.5v37.5c0,5,4.5,9.5,9.5,9.5h313.6c5,0,9.5-4.5,9.5-9.5V99.1
		C616,93.5,611.5,89.6,606.5,89.6z"/>
	<path d="M529.8,197.7H292.9c-5.6,0-10.1,3.9-10.1,9.5v37.5c0,5,4.5,9.5,9.5,9.5h236.9c5,0,9.5-4.5,9.5-9.5v-37.5
		C539.3,201.6,534.8,197.7,529.8,197.7L529.8,197.7z"/>
	<path d="M452.5,305.8H292.9c-5,0-9.5,4.5-9.5,9.5v37.5c0,5,4.5,9.5,9.5,9.5H453c5,0,9.5-4.5,9.5-9.5v-37.5
		C462.6,309.7,458.1,305.8,452.5,305.8L452.5,305.8z"/>
	<path d="M375.8,413.8h-82.9c-5,0-9.5,4.5-9.5,9.5v37.5c0,5,4.5,9.5,9.5,9.5h83.4c5,0,9.5-4.5,9.5-9.5v-37.5
		C385.3,418.3,381.4,413.8,375.8,413.8L375.8,413.8z"/>
	
		<use xlink:href="#h"  width="17.4" height="21.2" x="-8.7" y="-10.6" transform="matrix(1 0 0 1 80.0786 633.8046)" style="overflow:visible;"/>
	
		<use xlink:href="#c"  width="11.4" height="15.7" x="-5.7" y="-7.8" transform="matrix(1 0 0 1 98.5973 636.1561)" style="overflow:visible;"/>
	
		<use xlink:href="#a"  width="16.4" height="16.1" x="-8.2" y="-8" transform="matrix(1 0 0 1 113.7816 636.3516)" style="overflow:visible;"/>
	
		<use xlink:href="#l"  width="15.5" height="16.1" x="-7.7" y="-8" transform="matrix(1 0 0 1 132.293 636.3515)" style="overflow:visible;"/>
	
		<use xlink:href="#b"  width="12.4" height="19.7" x="-6.2" y="-9.8" transform="matrix(1 0 0 1 148.8047 634.1721)" style="overflow:visible;"/>
	<g>
		<defs>
			<rect id="SVGID_1_" x="155.6" y="644" width="700" height="700"/>
		</defs>
		<clipPath id="SVGID_00000168085727071990078010000008372942946787739534_">
			<use xlink:href="#SVGID_1_"  style="overflow:visible;"/>
		</clipPath>
		<g style="clip-path:url(#SVGID_00000168085727071990078010000008372942946787739534_);">
			
				<use xlink:href="#a"  width="16.4" height="16.1" x="-8.2" y="-8" transform="matrix(1 0 0 1 165.0511 636.3516)" style="overflow:visible;"/>
		</g>
	</g>
	
		<use xlink:href="#e"  width="16.4" height="21.7" x="-8.2" y="-10.8" transform="matrix(1 0 0 1 184.0941 633.5547)" style="overflow:visible;"/>
	
		<use xlink:href="#k"  width="16.4" height="21.7" x="-8.2" y="-10.8" transform="matrix(1 0 0 1 214.9805 633.5548)" style="overflow:visible;"/>
	
		<use xlink:href="#j"  width="17.4" height="21.4" x="-8.7" y="-10.7" transform="matrix(1 0 0 1 233.5 639.3679)" style="overflow:visible;"/>
	
		<use xlink:href="#i"  width="21.4" height="20.4" x="-10.7" y="-10.2" transform="matrix(1 0 0 1 263.2889 633.797)" style="overflow:visible;"/>
	<g>
		<defs>
			<rect id="SVGID_00000129913967535911120200000009256544545026701480_" x="274.1" y="644" width="700" height="700"/>
		</defs>
		<clipPath id="SVGID_00000123413679514741280840000003175940689913289364_">
			<use xlink:href="#SVGID_00000129913967535911120200000009256544545026701480_"  style="overflow:visible;"/>
		</clipPath>
		<g style="clip-path:url(#SVGID_00000123413679514741280840000003175940689913289364_);">
			
				<use xlink:href="#e"  width="16.4" height="21.7" x="-8.2" y="-10.8" transform="matrix(1 0 0 1 283.5981 633.5547)" style="overflow:visible;"/>
		</g>
	</g>
	<g>
		<defs>
			<rect id="SVGID_00000125580202104157220460000005930457779275302576_" x="294.2" y="644" width="700" height="700"/>
		</defs>
		<clipPath id="SVGID_00000129193454934872644940000007774251927163733387_">
			<use xlink:href="#SVGID_00000125580202104157220460000005930457779275302576_"  style="overflow:visible;"/>
		</clipPath>
		<g style="clip-path:url(#SVGID_00000129193454934872644940000007774251927163733387_);">
			
				<use xlink:href="#c"  width="11.4" height="15.7" x="-5.7" y="-7.8" transform="matrix(1 0 0 1 302.2106 636.1561)" style="overflow:visible;"/>
		</g>
	</g>
	
		<use xlink:href="#u"  width="4.9" height="21.3" x="-2.4" y="-10.6" transform="matrix(1 0 0 1 312.7773 633.3596)" style="overflow:visible;"/>
	<g>
		<defs>
			<rect id="SVGID_00000118376376542802332850000011545360299309098883_" x="317.6" y="644" width="700" height="700"/>
		</defs>
		<clipPath id="SVGID_00000085964109103097395740000015262796868652159934_">
			<use xlink:href="#SVGID_00000118376376542802332850000011545360299309098883_"  style="overflow:visible;"/>
		</clipPath>
		<g style="clip-path:url(#SVGID_00000085964109103097395740000015262796868652159934_);">
			
				<use xlink:href="#a"  width="16.4" height="16.1" x="-8.2" y="-8" transform="matrix(1 0 0 1 326.9925 636.3516)" style="overflow:visible;"/>
		</g>
	</g>
	
		<use xlink:href="#g"  width="15.4" height="15.7" x="-7.7" y="-7.8" transform="matrix(1 0 0 1 346.6172 636.1564)" style="overflow:visible;"/>
	<g>
		<defs>
			<rect id="SVGID_00000025419449146504971450000013561943183817693826_" x="366.2" y="644" width="700" height="700"/>
		</defs>
		<clipPath id="SVGID_00000101071193247739994200000017725302172781464981_">
			<use xlink:href="#SVGID_00000025419449146504971450000013561943183817693826_"  style="overflow:visible;"/>
		</clipPath>
		<g style="clip-path:url(#SVGID_00000101071193247739994200000017725302172781464981_);">
			
				<use xlink:href="#h"  width="17.4" height="21.2" x="-8.7" y="-10.6" transform="matrix(1 0 0 1 376.3207 633.8046)" style="overflow:visible;"/>
		</g>
	</g>
	
		<use xlink:href="#d"  width="16.8" height="16.1" x="-8.4" y="-8" transform="matrix(1 0 0 1 396.4062 636.351)" style="overflow:visible;"/>
	
		<use xlink:href="#t"  width="16.4" height="21.5" x="-8.2" y="-10.7" transform="matrix(1 0 0 1 415.504 639.0862)" style="overflow:visible;"/>
	
		<use xlink:href="#f"  width="15.4" height="15.7" x="-7.7" y="-7.9" transform="matrix(1 0 0 1 435.9531 636.5387)" style="overflow:visible;"/>
	<g>
		<defs>
			<rect id="SVGID_00000054956410715780921410000015664826235109804200_" x="446" y="644" width="700" height="700"/>
		</defs>
		<clipPath id="SVGID_00000069381083562306400830000011211650478236999343_">
			<use xlink:href="#SVGID_00000054956410715780921410000015664826235109804200_"  style="overflow:visible;"/>
		</clipPath>
		<g style="clip-path:url(#SVGID_00000069381083562306400830000011211650478236999343_);">
			
				<use xlink:href="#a"  width="16.4" height="16.1" x="-8.2" y="-8" transform="matrix(1 0 0 1 455.4261 636.3516)" style="overflow:visible;"/>
		</g>
	</g>
	<g>
		<defs>
			<rect id="SVGID_00000157283658369478594890000007654294247588637846_" x="465" y="644" width="700" height="700"/>
		</defs>
		<clipPath id="SVGID_00000132777426879049741960000000821188134360518582_">
			<use xlink:href="#SVGID_00000157283658369478594890000007654294247588637846_"  style="overflow:visible;"/>
		</clipPath>
		<g style="clip-path:url(#SVGID_00000132777426879049741960000000821188134360518582_);">
			
				<use xlink:href="#b"  width="12.4" height="19.7" x="-6.2" y="-9.8" transform="matrix(1 0 0 1 471.5547 634.1721)" style="overflow:visible;"/>
		</g>
	</g>
	
		<use xlink:href="#s"  width="11.9" height="21.3" x="-5.9" y="-10.6" transform="matrix(1 0 0 1 76.4767 661.3594)" style="overflow:visible;"/>
	<g>
		<defs>
			<rect id="SVGID_00000037691542221001460960000000511690837492677512_" x="82.2" y="672" width="700" height="700"/>
		</defs>
		<clipPath id="SVGID_00000111180988572183549430000005945447703410188928_">
			<use xlink:href="#SVGID_00000037691542221001460960000000511690837492677512_"  style="overflow:visible;"/>
		</clipPath>
		<g style="clip-path:url(#SVGID_00000111180988572183549430000005945447703410188928_);">
			
				<use xlink:href="#c"  width="11.4" height="15.7" x="-5.7" y="-7.8" transform="matrix(1 0 0 1 90.2301 664.1561)" style="overflow:visible;"/>
		</g>
	</g>
	<g>
		<defs>
			<rect id="SVGID_00000169530948424186321800000008144631212774200724_" x="96" y="672" width="700" height="700"/>
		</defs>
		<clipPath id="SVGID_00000072238318292040704530000011347053271519150751_">
			<use xlink:href="#SVGID_00000169530948424186321800000008144631212774200724_"  style="overflow:visible;"/>
		</clipPath>
		<g style="clip-path:url(#SVGID_00000072238318292040704530000011347053271519150751_);">
			
				<use xlink:href="#d"  width="16.8" height="16.1" x="-8.4" y="-8" transform="matrix(1 0 0 1 105.6094 664.351)" style="overflow:visible;"/>
		</g>
	</g>
	
		<use xlink:href="#r"  width="24.6" height="15.7" x="-12.3" y="-7.8" transform="matrix(1 0 0 1 129.875 664.1558)" style="overflow:visible;"/>
	<g>
		<defs>
			<rect id="SVGID_00000150789301058638939840000012196246121895504518_" x="154.2" y="672" width="700" height="700"/>
		</defs>
		<clipPath id="SVGID_00000008149213603868189600000016687769949094575001_">
			<use xlink:href="#SVGID_00000150789301058638939840000012196246121895504518_"  style="overflow:visible;"/>
		</clipPath>
		<g style="clip-path:url(#SVGID_00000008149213603868189600000016687769949094575001_);">
			
				<use xlink:href="#b"  width="12.4" height="19.7" x="-6.2" y="-9.8" transform="matrix(1 0 0 1 160.7148 662.1721)" style="overflow:visible;"/>
		</g>
	</g>
	
		<use xlink:href="#q"  width="15.4" height="21.3" x="-7.7" y="-10.6" transform="matrix(1 0 0 1 177.5899 661.3594)" style="overflow:visible;"/>
	<g>
		<defs>
			<rect id="SVGID_00000108305319653307024130000015129285199585194919_" x="187.5" y="672" width="700" height="700"/>
		</defs>
		<clipPath id="SVGID_00000051370389588205048110000003614341116326991769_">
			<use xlink:href="#SVGID_00000108305319653307024130000015129285199585194919_"  style="overflow:visible;"/>
		</clipPath>
		<g style="clip-path:url(#SVGID_00000051370389588205048110000003614341116326991769_);">
			
				<use xlink:href="#a"  width="16.4" height="16.1" x="-8.2" y="-8" transform="matrix(1 0 0 1 196.8909 664.3516)" style="overflow:visible;"/>
		</g>
	</g>
	
		<use xlink:href="#p"  width="18.3" height="20.4" x="-9.1" y="-10.2" transform="matrix(1 0 0 1 227.9258 661.797)" style="overflow:visible;"/>
	<g>
		<defs>
			<rect id="SVGID_00000075161153535071228620000010211984505157526402_" x="239.6" y="672" width="700" height="700"/>
		</defs>
		<clipPath id="SVGID_00000002350970660219292430000006325945930379444156_">
			<use xlink:href="#SVGID_00000075161153535071228620000010211984505157526402_"  style="overflow:visible;"/>
		</clipPath>
		<g style="clip-path:url(#SVGID_00000002350970660219292430000006325945930379444156_);">
			
				<use xlink:href="#d"  width="16.8" height="16.1" x="-8.4" y="-8" transform="matrix(1 0 0 1 249.2578 664.351)" style="overflow:visible;"/>
		</g>
	</g>
	<g>
		<defs>
			<rect id="SVGID_00000020371052829238432990000009824413477539192994_" x="258.9" y="672" width="700" height="700"/>
		</defs>
		<clipPath id="SVGID_00000143619140063397024500000006987612063998647215_">
			<use xlink:href="#SVGID_00000020371052829238432990000009824413477539192994_"  style="overflow:visible;"/>
		</clipPath>
		<g style="clip-path:url(#SVGID_00000143619140063397024500000006987612063998647215_);">
			
				<use xlink:href="#f"  width="15.4" height="15.7" x="-7.7" y="-7.9" transform="matrix(1 0 0 1 268.7617 664.5387)" style="overflow:visible;"/>
		</g>
	</g>
	<g>
		<defs>
			<rect id="SVGID_00000148660880647883696230000006065571633349687690_" x="278.8" y="672" width="700" height="700"/>
		</defs>
		<clipPath id="SVGID_00000175286118859773760130000009661313873748607908_">
			<use xlink:href="#SVGID_00000148660880647883696230000006065571633349687690_"  style="overflow:visible;"/>
		</clipPath>
		<g style="clip-path:url(#SVGID_00000175286118859773760130000009661313873748607908_);">
			
				<use xlink:href="#g"  width="15.4" height="15.7" x="-7.7" y="-7.8" transform="matrix(1 0 0 1 288.8672 664.1564)" style="overflow:visible;"/>
		</g>
	</g>
	
		<use xlink:href="#o"  width="16.8" height="20.4" x="-8.4" y="-10.2" transform="matrix(1 0 0 1 319.4688 661.7971)" style="overflow:visible;"/>
	<g>
		<defs>
			<rect id="SVGID_00000088845938142206490030000017895537730402754453_" x="329" y="672" width="700" height="700"/>
		</defs>
		<clipPath id="SVGID_00000052101581362529728170000000592592942072503199_">
			<use xlink:href="#SVGID_00000088845938142206490030000017895537730402754453_"  style="overflow:visible;"/>
		</clipPath>
		<g style="clip-path:url(#SVGID_00000052101581362529728170000000592592942072503199_);">
			
				<use xlink:href="#c"  width="11.4" height="15.7" x="-5.7" y="-7.8" transform="matrix(1 0 0 1 337.0622 664.1561)" style="overflow:visible;"/>
		</g>
	</g>
	<g>
		<defs>
			<rect id="SVGID_00000081638528551789359190000014361155227274055567_" x="342.8" y="672" width="700" height="700"/>
		</defs>
		<clipPath id="SVGID_00000140734387365725449680000015993936655371325111_">
			<use xlink:href="#SVGID_00000081638528551789359190000014361155227274055567_"  style="overflow:visible;"/>
		</clipPath>
		<g style="clip-path:url(#SVGID_00000140734387365725449680000015993936655371325111_);">
			
				<use xlink:href="#d"  width="16.8" height="16.1" x="-8.4" y="-8" transform="matrix(1 0 0 1 352.4375 664.351)" style="overflow:visible;"/>
		</g>
	</g>
	
		<use xlink:href="#n"  width="8.2" height="27.3" x="-4.1" y="-13.7" transform="matrix(1 0 0 1 365.2148 664.3832)" style="overflow:visible;"/>
	<g>
		<defs>
			<rect id="SVGID_00000160898989436554502400000016330059914852887696_" x="371.7" y="672" width="700" height="700"/>
		</defs>
		<clipPath id="SVGID_00000119104083805665634300000001237247593761405882_">
			<use xlink:href="#SVGID_00000160898989436554502400000016330059914852887696_"  style="overflow:visible;"/>
		</clipPath>
		<g style="clip-path:url(#SVGID_00000119104083805665634300000001237247593761405882_);">
			
				<use xlink:href="#a"  width="16.4" height="16.1" x="-8.2" y="-8" transform="matrix(1 0 0 1 381.0785 664.3516)" style="overflow:visible;"/>
		</g>
	</g>
	
		<use xlink:href="#m"  width="13.5" height="16.1" x="-6.8" y="-8" transform="matrix(1 0 0 1 398.6096 664.3519)" style="overflow:visible;"/>
	<g>
		<defs>
			<rect id="SVGID_00000172407130918437152590000005269495839452224683_" x="407.2" y="672" width="700" height="700"/>
		</defs>
		<clipPath id="SVGID_00000166664085421880870790000016179666986651322006_">
			<use xlink:href="#SVGID_00000172407130918437152590000005269495839452224683_"  style="overflow:visible;"/>
		</clipPath>
		<g style="clip-path:url(#SVGID_00000166664085421880870790000016179666986651322006_);">
			
				<use xlink:href="#b"  width="12.4" height="19.7" x="-6.2" y="-9.8" transform="matrix(1 0 0 1 413.8047 662.1721)" style="overflow:visible;"/>
		</g>
	</g>
</g>
</svg>
