<?xml version="1.0" encoding="utf-8"?>
<!-- Generator: Adobe Illustrator 27.5.0, SVG Export Plug-In . SVG Version: 6.00 Build 0)  -->
<svg version="1.1" id="Layer_1" xmlns="http://www.w3.org/2000/svg" xmlns:xlink="http://www.w3.org/1999/xlink" x="0px" y="0px"
	 viewBox="0 0 700 700" style="enable-background:new 0 0 700 700;" xml:space="preserve">
<style type="text/css">
	.st0{fill:#1E3A57;}
</style>
<path class="st0" d="M534.9,143.7v117.9c0,5-5,10-10,10h-29c-5,0-9-3-10-8l-12-52H388v282.8l81.9,30c4,2,6,5,6,9v27c0,5-5,10-10,10
	l-235.8,0c-5,0-10-5-10-10v-27c0-4,3-8,7-9l81.9-30l0-282.8h-85.9l-12,52c-1,4-5,8-10,8h-29c-5,0-10-5-10-10l0-117.9c0-5,5-10,10-10
	h353.7C530.9,133.7,534.9,138.7,534.9,143.7L534.9,143.7z"/>
<path class="st0" d="M650.8,140.7c11,0,20-9,20-20V50.8c0-11-9-20-20-20h-70.9c-11,0-20,9-20,20v25H136.2v-25c0-11-9-20-20-20H46.2
	c-11,0-20,9-20,20v69.9c0,11,9,20,20,20h25v423.7l-25,0c-11,0-20,9-20,20v70.9c0,11,9,20,20,20h70.9c11,0,20-9,20-20v-25h423.7v25
	c0,11,9,20,20,20h70.9c11,0,20-9,20-20v-70.9c0-11-9-20-20-20h-25l0-423.7L650.8,140.7z M604.8,564.3h-25c-11,0-20,9-20,20v25H136.2
	v-25c0-11-9-20-20-20h-25V140.7h25c11,0,20-9,20-20v-25h423.7v25c0,11,9,20,20,20h25V564.3z"/>
</svg>
